<svg width="20" height="20" viewBox="0 0 20 20" fill="none" xmlns="http://www.w3.org/2000/svg">
<g clip-path="url(#clip0_3_1475)">
<path d="M2.33532 14.197C1.52709 10.9641 1.12298 9.3476 1.97161 8.26076C2.82023 7.17383 4.48644 7.17383 7.81884 7.17383H12.1812C15.5136 7.17383 17.1798 7.17383 18.0283 8.26076C18.877 9.3476 18.4729 10.9641 17.6647 14.197C17.1506 16.2532 16.8936 17.2812 16.127 17.8798C15.3604 18.4784 14.3007 18.4784 12.1812 18.4784H7.81884C5.69937 18.4784 4.63963 18.4784 3.87301 17.8798C3.1064 17.2812 2.84937 16.2532 2.33532 14.197Z" stroke="white" stroke-width="1.5"/>
<path d="M17.0654 7.64464L16.3961 5.19027C16.1381 4.24389 16.0091 3.7707 15.7444 3.41434C15.4809 3.05944 15.1227 2.78588 14.711 2.62496C14.2975 2.46338 13.8071 2.46338 12.8262 2.46338M2.93468 7.64464L3.60391 5.19027C3.86195 4.24389 3.99098 3.7707 4.25562 3.41434C4.51919 3.05944 4.87733 2.78588 5.28906 2.62496C5.70249 2.46338 6.19295 2.46338 7.17389 2.46338" stroke="white" stroke-width="1.5"/>
<path d="M7.17389 2.46353C7.17389 1.94326 7.59566 1.52148 8.11594 1.52148H11.8841C12.4044 1.52148 12.8262 1.94326 12.8262 2.46353C12.8262 2.9838 12.4044 3.40558 11.8841 3.40558H8.11594C7.59566 3.40558 7.17389 2.9838 7.17389 2.46353Z" stroke="white" stroke-width="1.5"/>
<path d="M6.23184 10.9419V14.7101" stroke="white" stroke-width="1.5" stroke-linecap="round" stroke-linejoin="round"/>
<path d="M13.7682 10.9419V14.7101" stroke="white" stroke-width="1.5" stroke-linecap="round" stroke-linejoin="round"/>
<path d="M10 10.9419V14.7101" stroke="white" stroke-width="1.5" stroke-linecap="round" stroke-linejoin="round"/>
</g>
<defs>
<clipPath id="clip0_3_1475">
<rect width="20" height="20" fill="white"/>
</clipPath>
</defs>
</svg>
