<svg width="20" height="20" viewBox="0 0 20 20" fill="none" xmlns="http://www.w3.org/2000/svg">
<g clip-path="url(#clip0_3_1442)">
<path fill-rule="evenodd" clip-rule="evenodd" d="M15.6525 18.6434C17.5216 18.6434 19.0375 17.0023 19.0385 14.9774V14.9753V12.0563C17.804 12.0563 16.8041 10.9731 16.8032 9.63583C16.8032 8.29959 17.803 7.21527 19.0375 7.21527H19.0385V4.29635C19.0405 2.27041 17.5266 0.627162 15.6575 0.625H15.6515H3.96387C2.09376 0.625 0.577922 2.26608 0.576924 4.29203V4.29311V7.30932C1.76844 7.26392 2.76736 8.27365 2.80927 9.56442C2.81027 9.58825 2.81127 9.612 2.81127 9.63583C2.81227 10.9709 1.81535 12.0542 0.582911 12.0563H0.576924V14.9753C0.575925 17.0002 2.09177 18.6434 3.96088 18.6434H3.96187H15.6525Z" stroke="#818181" stroke-width="1.5" stroke-linecap="round" stroke-linejoin="round"/>
<path fill-rule="evenodd" clip-rule="evenodd" d="M10.178 6.36887L10.7927 7.71698C10.8525 7.84887 10.9683 7.94076 11.1031 7.96239L12.4772 8.17968C12.8175 8.23374 12.9522 8.68561 12.7067 8.94403L11.7128 9.99261C11.615 10.0954 11.5711 10.2434 11.593 10.3894L11.8275 11.8705C11.8855 12.2369 11.5312 12.5159 11.2278 12.3429L9.99939 11.6434C9.87862 11.5743 9.73492 11.5743 9.61415 11.6434L8.38669 12.3429C8.08239 12.5159 7.72808 12.2369 7.786 11.8705L8.02046 10.3894C8.04346 10.2434 7.99854 10.0954 7.90069 9.99261L6.90779 8.94403C6.66231 8.68561 6.79702 8.23374 7.13632 8.17968L8.51046 7.96239C8.64515 7.94076 8.76192 7.84887 8.82177 7.71698L9.43554 6.36887C9.58723 6.0359 10.0263 6.0359 10.178 6.36887Z" stroke="#818181" stroke-width="1.5" stroke-linecap="round" stroke-linejoin="round"/>
</g>
<defs>
<clipPath id="clip0_3_1442">
<rect width="20" height="20" fill="white"/>
</clipPath>
</defs>
</svg>
