<svg width="20" height="20" viewBox="0 0 20 20" fill="none" xmlns="http://www.w3.org/2000/svg">
<mask id="path-1-inside-1_3_1472" fill="white">
<path d="M7.08398 17.943V15.1122C7.08396 14.3921 7.70185 13.8069 8.46739 13.8022H11.2717C12.041 13.8022 12.6645 14.3886 12.6645 15.1122V17.9517C12.6643 18.563 13.1831 19.0626 13.8329 19.077H15.7025C17.5662 19.077 19.0769 17.6561 19.0769 15.9033V7.85041C19.067 7.16085 18.7228 6.51334 18.1422 6.09213L11.7485 1.24806C10.6283 0.404616 9.036 0.404616 7.91593 1.24806L1.55019 6.10092C0.96741 6.52043 0.622604 7.16902 0.615425 7.85918V15.9033C0.615425 17.6561 2.12623 19.077 3.98992 19.077H5.85943C6.5254 19.077 7.06528 18.5693 7.06528 17.943"/>
</mask>
<path d="M5.58398 17.943C5.58398 18.7714 6.25555 19.443 7.08398 19.443C7.91241 19.443 8.58398 18.7714 8.58398 17.943H7.08398H5.58398ZM7.08398 15.1122H8.58398V15.1121L7.08398 15.1122ZM8.46739 13.8022V12.3022L8.45804 12.3022L8.46739 13.8022ZM12.6645 17.9517L14.1645 17.9521V17.9517H12.6645ZM13.8329 19.077L13.7997 20.5767C13.8108 20.5769 13.8219 20.577 13.8329 20.577V19.077ZM19.0769 7.85041H20.5769C20.5769 7.84322 20.5769 7.83602 20.5768 7.82883L19.0769 7.85041ZM18.1422 6.09213L17.2363 7.28773C17.2446 7.294 17.2529 7.30018 17.2613 7.30627L18.1422 6.09213ZM11.7485 1.24806L12.6543 0.0524533L12.6507 0.0497785L11.7485 1.24806ZM7.91593 1.24806L7.01359 0.0497873L7.00653 0.0551673L7.91593 1.24806ZM1.55019 6.10092L2.42652 7.31831C2.43765 7.3103 2.44867 7.30213 2.45958 7.29382L1.55019 6.10092ZM0.615425 7.85918L-0.884494 7.84358C-0.884548 7.84878 -0.884575 7.85398 -0.884575 7.85918H0.615425ZM8.56528 17.943C8.56528 17.1145 7.89371 16.443 7.06528 16.443C6.23685 16.443 5.56528 17.1145 5.56528 17.943H7.06528H8.56528ZM7.08398 17.943H8.58398V15.1122H7.08398H5.58398V17.943H7.08398ZM7.08398 15.1122L8.58398 15.1121C8.58398 15.195 8.54582 15.2536 8.51998 15.2781C8.50764 15.2898 8.49683 15.2957 8.48932 15.2987C8.48102 15.3021 8.4761 15.3022 8.47673 15.3022L8.46739 13.8022L8.45804 12.3022C6.95464 12.3116 5.58393 13.4831 5.58398 15.1122L7.08398 15.1122ZM8.46739 13.8022V15.3022H11.2717V13.8022V12.3022H8.46739V13.8022ZM11.2717 13.8022V15.3022C11.2718 15.3022 11.2531 15.3013 11.2289 15.2785C11.203 15.2541 11.1645 15.1953 11.1645 15.1122H12.6645H14.1645C14.1645 13.475 12.7816 12.3022 11.2717 12.3022V13.8022ZM12.6645 15.1122H11.1645V17.9517H12.6645H14.1645V15.1122H12.6645ZM12.6645 17.9517L11.1645 17.9513C11.1641 19.4609 12.4196 20.5461 13.7997 20.5767L13.8329 19.077L13.8661 17.5774C13.9196 17.5786 13.9865 17.601 14.0455 17.6578C14.106 17.7161 14.1645 17.8201 14.1645 17.9521L12.6645 17.9517ZM13.8329 19.077V20.577H15.7025V19.077V17.577H13.8329V19.077ZM15.7025 19.077V20.577C18.3066 20.577 20.5769 18.5699 20.5769 15.9033H19.0769H17.5769C17.5769 16.7423 16.8257 17.577 15.7025 17.577V19.077ZM19.0769 15.9033H20.5769V7.85041H19.0769H17.5769V15.9033H19.0769ZM19.0769 7.85041L20.5768 7.82883C20.5597 6.64458 19.9684 5.56384 19.023 4.87798L18.1422 6.09213L17.2613 7.30627C17.4772 7.46284 17.5743 7.67712 17.5771 7.87199L19.0769 7.85041ZM18.1422 6.09213L19.048 4.89652L12.6543 0.0524586L11.7485 1.24806L10.8426 2.44367L17.2363 7.28773L18.1422 6.09213ZM11.7485 1.24806L12.6507 0.0497785C10.9963 -1.19594 8.66798 -1.19598 7.01361 0.0498083L7.91593 1.24806L8.81825 2.44632C9.40403 2.00521 10.2603 2.00517 10.8462 2.44635L11.7485 1.24806ZM7.91593 1.24806L7.00653 0.0551673L0.640794 4.90802L1.55019 6.10092L2.45958 7.29382L8.82532 2.44096L7.91593 1.24806ZM1.55019 6.10092L0.673856 4.88353C-0.277679 5.56848 -0.872122 6.65428 -0.884494 7.84358L0.615425 7.85918L2.11534 7.87478C2.11733 7.68376 2.2125 7.47237 2.42652 7.31831L1.55019 6.10092ZM0.615425 7.85918H-0.884575V15.9033H0.615425H2.11543V7.85918H0.615425ZM0.615425 15.9033H-0.884575C-0.884575 18.5699 1.38582 20.577 3.98992 20.577V19.077V17.577C2.86664 17.577 2.11543 16.7423 2.11543 15.9033H0.615425ZM3.98992 19.077V20.577H5.85943V19.077V17.577H3.98992V19.077ZM5.85943 19.077V20.577C7.26581 20.577 8.56528 19.483 8.56528 17.943H7.06528H5.56528C5.56528 17.811 5.62482 17.7083 5.68444 17.6522C5.74249 17.5976 5.80784 17.577 5.85943 17.577V19.077Z" fill="#818181" mask="url(#path-1-inside-1_3_1472)"/>
</svg>
