<svg width="45" height="45" viewBox="0 0 45 45" fill="none" xmlns="http://www.w3.org/2000/svg">
<path fill-rule="evenodd" clip-rule="evenodd" d="M28.7392 12.783H16.2607C9.93296 12.783 6.76907 12.783 4.99185 14.6333C3.21463 16.4836 3.63278 19.3423 4.46908 25.0595L5.26215 30.4813C5.91799 34.9648 6.24591 37.2065 7.92814 38.549C9.61037 39.8915 12.0915 39.8915 17.0538 39.8915H27.9461C32.9085 39.8915 35.3897 39.8915 37.0719 38.549C38.7542 37.2065 39.0819 34.9648 39.7378 30.4813L40.5309 25.0595C41.3672 19.3423 41.7853 16.4836 40.0082 14.6333C38.2309 12.783 35.067 12.783 28.7392 12.783ZM27.3397 28.2559C28.3867 27.6067 28.3867 25.9265 27.3397 25.2774L21.018 21.3585C20.0004 20.7277 18.75 21.5488 18.75 22.8476V30.6857C18.75 31.9845 20.0004 32.8055 21.018 32.1748L27.3397 28.2559Z" fill="white"/>
<path opacity="0.4" d="M15.7947 5.10866H28.8824C29.3182 5.10854 29.6525 5.10847 29.9446 5.13704C32.0217 5.34024 33.722 6.5891 34.4429 8.27135H10.2341C10.9551 6.5891 12.6553 5.34024 14.7324 5.13704C15.0246 5.10847 15.3588 5.10854 15.7947 5.10866Z" fill="white"/>
<path opacity="0.7" d="M11.6709 8.98828C9.06345 8.98828 6.92545 10.5628 6.21195 12.6516C6.19708 12.6952 6.18283 12.739 6.1692 12.7829C6.91573 12.5569 7.69266 12.4092 8.47916 12.3083C10.5049 12.0486 13.0649 12.0488 16.0387 12.0489H28.9614C31.9351 12.0488 34.4952 12.0486 36.5208 12.3083C37.3074 12.4092 38.0844 12.5569 38.8308 12.7829C38.8173 12.739 38.8029 12.6952 38.788 12.6516C38.0746 10.5628 35.9365 8.98828 33.3292 8.98828H11.6709Z" fill="white"/>
</svg>
