<svg width="20" height="20" viewBox="0 0 20 20" fill="none" xmlns="http://www.w3.org/2000/svg">
<g clip-path="url(#clip0_3_1414)">
<path fill-rule="evenodd" clip-rule="evenodd" d="M2.56312 8.08032V14.1787C2.56312 15.7785 3.81657 17.0755 5.3628 17.0755H13.6145C15.1607 17.0755 16.4142 15.7785 16.4142 14.1787V8.08032H17.8877V14.1787C17.8877 16.6205 15.9745 18.6 13.6145 18.6H5.3628C3.00277 18.6 1.0896 16.6205 1.0896 14.1787V8.08032H2.56312Z" fill="#818181"/>
<path fill-rule="evenodd" clip-rule="evenodd" d="M6.0995 13.5689C6.0995 12.4743 6.95713 11.5869 8.01507 11.5869H10.6674C11.7253 11.5869 12.583 12.4743 12.583 13.5689V17.8378H11.1094V13.5689C11.1094 13.3163 10.9115 13.1115 10.6674 13.1115H8.01507C7.7709 13.1115 7.57305 13.3163 7.57305 13.5689V17.8378H6.0995V13.5689Z" fill="#818181"/>
<path fill-rule="evenodd" clip-rule="evenodd" d="M1.97401 2.36153L1.50606 5.99279C1.50493 6.0016 1.50365 6.01039 1.50221 6.01915C1.38807 6.71753 1.626 7.23049 2.05116 7.60099C2.50359 7.99516 3.18555 8.23281 3.88919 8.23281C4.63553 8.23281 5.29571 7.8508 5.69707 7.26204C5.82577 7.0732 6.03028 6.95498 6.25314 6.94056C6.476 6.92613 6.69316 7.01707 6.8436 7.18778C7.56118 8.00217 8.46432 8.53771 9.34118 8.53771C10.2181 8.53771 11.1212 8.00217 11.8388 7.18778C11.9892 7.01707 12.2064 6.92613 12.4293 6.94056C12.6521 6.95498 12.8566 7.0732 12.9853 7.26204C13.3867 7.8508 14.0469 8.23281 14.7932 8.23281C15.4996 8.23281 16.166 7.98636 16.597 7.58782C17.0005 7.21475 17.225 6.69194 17.0842 5.97571C17.0831 5.96932 17.0819 5.96291 17.0807 5.9565L16.4604 2.32329C16.3425 1.85379 15.9326 1.5246 15.4621 1.5246H2.98118C2.49642 1.5246 2.07811 1.87363 1.97401 2.36153ZM0.524845 2.08351C0.75902 0.872035 1.7871 0 2.98118 0H15.4621C16.6204 0 17.6276 0.821622 17.8979 1.98695C17.9014 2.00195 17.9045 2.01705 17.9071 2.03224L18.5303 5.68214C18.7765 6.95272 18.35 8.01176 17.5788 8.72464C16.8333 9.41392 15.7976 9.75738 14.7932 9.75738C13.8545 9.75738 12.998 9.39374 12.348 8.79661C11.53 9.52008 10.4907 10.0623 9.34118 10.0623C8.19169 10.0623 7.15241 9.52008 6.3344 8.79661C5.68443 9.39374 4.82788 9.75738 3.88919 9.75738C2.89988 9.75738 1.86375 9.4308 1.10202 8.76714C0.315883 8.08215 -0.15584 7.04867 0.0470824 5.77881L0.517 2.13227C0.519105 2.11593 0.521721 2.09967 0.524845 2.08351Z" fill="#818181"/>
</g>
<defs>
<clipPath id="clip0_3_1414">
<rect width="20" height="20" fill="white"/>
</clipPath>
</defs>
</svg>
