<svg width="70" height="70" viewBox="0 0 70 70" fill="none" xmlns="http://www.w3.org/2000/svg">
<path d="M14.9151 51.3588L6.25012 62.5L16.25 61.25L18.75 70L27.5 58.7499L27.5401 58.6986C25.8076 56.9499 23.9101 55.3736 21.8752 53.9887C19.645 52.89 17.3138 52.01 14.9151 51.3588Z" fill="#EF2648"/>
<path d="M55.085 51.3588C52.6862 52.0087 50.3549 52.8876 48.125 53.9838C46.09 55.3675 44.1938 56.945 42.4613 58.6937L51.25 70L53.75 61.25L63.7501 62.5L55.085 51.3588Z" fill="#EF2648"/>
<path d="M61.2499 31.2499C61.2499 26.0124 64.5137 19.8499 62.0662 15.6249C59.5425 11.2613 52.4875 11.0388 48.1249 8.51498C43.8962 6.06375 40.2375 0 34.9999 0C29.7624 0 26.1037 6.06498 21.8749 8.51129C17.5112 11.0363 10.4574 11.2613 7.93373 15.6213C5.4862 19.8501 8.74995 26.0125 8.74995 31.2499C8.74995 36.4874 5.4862 42.65 7.93373 46.875C10.4574 51.2388 17.5125 51.4612 21.8749 53.985C26.1037 56.4363 29.7624 62.5 34.9999 62.5C40.2375 62.5 43.8962 56.435 48.1249 53.9887C52.4887 51.4637 59.5425 51.2388 62.0662 46.8787C64.5137 42.65 61.2499 36.4875 61.2499 31.2499Z" fill="#FFA511"/>
<path d="M35.0001 52.5C46.7361 52.5 56.2501 42.986 56.2501 31.2499C56.2501 19.5139 46.7361 9.99988 35.0001 9.99988C23.264 9.99988 13.75 19.5139 13.75 31.2499C13.75 42.986 23.264 52.5 35.0001 52.5Z" fill="#FFDC13"/>
<path d="M47.4024 26.25H38.8362L36.1886 18.1038C35.9736 17.4475 35.2662 17.0912 34.6112 17.3063C34.2337 17.43 33.9374 17.7263 33.8137 18.1038L31.1638 26.25H22.5976C21.9075 26.25 21.3475 26.81 21.3475 27.5001C21.3475 27.9001 21.5388 28.2763 21.8626 28.5114L28.7926 33.5477L26.145 41.6952C25.9313 42.3514 26.2913 43.0565 26.9475 43.2702C27.3288 43.3939 27.745 43.3277 28.0688 43.0927L35 38.0562L41.93 43.0912C42.4888 43.4974 43.27 43.3737 43.6763 42.8149C43.9113 42.4911 43.9775 42.0736 43.8538 41.6937L41.2062 33.5462L48.1362 28.5099C48.6937 28.1037 48.8162 27.3211 48.4099 26.7636C48.175 26.4413 47.8012 26.2513 47.4024 26.25Z" fill="#EF2648"/>
<path d="M62.0662 15.625C62.0125 15.5313 61.9413 15.4513 61.8875 15.3625C60.0476 18.865 57.8662 22.1763 55.3751 25.25C58.6926 36.5001 52.2613 48.31 41.0113 51.6276C33.6188 53.8064 25.6251 51.8101 20.125 46.4101C16.3763 47.1327 12.5675 47.4976 8.75002 47.5002C8.61508 47.5002 8.48383 47.4915 8.34875 47.4902C11.1575 51.2627 17.7237 51.5889 21.875 53.9902C26.1037 56.4352 29.7625 62.5003 35 62.5003C40.2376 62.5003 43.8963 56.4353 48.125 53.989C52.4888 51.464 59.5425 51.2391 62.0662 46.879C64.5138 42.6502 61.25 36.4876 61.25 31.2502C61.25 26.0128 64.5138 19.8501 62.0662 15.625Z" fill="#F08015"/>
<path d="M42.3901 37.1862L43.855 41.6937C44.0687 42.3499 43.7088 43.055 43.0525 43.2687C42.6712 43.3924 42.255 43.3263 41.9313 43.0912L37.7313 40.0387C32.2338 43.0787 26.29 45.2299 20.1212 46.4138C28.4799 54.64 41.9238 54.5325 50.1488 46.1738C55.5662 40.6689 57.5675 32.6563 55.375 25.2501C51.655 29.8437 47.28 33.8649 42.3901 37.1862Z" fill="#E5AF17"/>
<path d="M43.855 41.6938L42.39 37.1863C40.885 38.2076 39.3326 39.1587 37.7313 40.0388L41.9313 43.0913C42.4901 43.4975 43.2713 43.3738 43.6776 42.815C43.9125 42.4912 43.9787 42.0751 43.855 41.6938Z" fill="#B20D24"/>
<path d="M53.125 58.7499C56.3649 58.7524 59.565 59.4787 62.4887 60.875L55.085 51.3562C52.6862 52.0062 50.3549 52.885 48.125 53.9812C46.09 55.3649 44.1938 56.9424 42.4613 58.6912L44.0475 60.7324C46.895 59.4249 49.9912 58.7487 53.125 58.7499Z" fill="#B20D24"/>
<path d="M21.875 53.9888C19.645 52.8926 17.3138 52.0137 14.915 51.3638L14.5288 51.8638C18.7475 54.91 21.2476 59.7963 21.25 65C21.2476 65.6525 21.2051 66.3025 21.1251 66.95L27.5001 58.75L27.5402 58.6987C25.8074 56.9501 23.91 55.3737 21.875 53.9888Z" fill="#B20D24"/>
</svg>
