<svg width="70" height="70" viewBox="0 0 70 70" fill="none" xmlns="http://www.w3.org/2000/svg">
<g clip-path="url(#clip0_2_761)">
<path d="M25.8094 55.9649C28.5702 58.4382 32.6004 58.7778 34.9674 58.7314C36.1024 58.7092 37.0758 57.9282 37.3607 56.8292C37.7011 55.5161 36.9487 54.1674 35.6525 53.7671L24.9344 50.4571C24.2187 50.2361 23.4503 50.256 22.747 50.5139L16.0905 52.9546V66.4576H31.5751C32.3582 66.4576 33.124 66.2274 33.7774 65.7956L49.7253 55.2561C51.176 54.2973 51.3614 52.2398 50.1054 51.0373C49.1787 50.15 47.7569 50.0341 46.6986 50.7596L37.1965 57.2737" fill="#F6C358"/>
<path d="M34.3492 59.2256C32.0089 59.2256 28.0628 58.8139 25.3271 56.3628L25.8102 55.8247C28.5191 58.249 32.5527 58.5379 34.7193 58.499C35.6825 58.4799 36.5257 57.8091 36.7701 56.867L37.4706 57.0492C37.1443 58.3026 36.0187 59.1967 34.7335 59.222C34.6105 59.2242 34.4833 59.2256 34.3492 59.2256Z" fill="white" stroke="#DC8744" stroke-miterlimit="10"/>
<path d="M25.8094 55.9648C28.5702 58.4381 32.6004 58.7778 34.9674 58.7314C36.1024 58.7091 37.0758 57.9281 37.3607 56.8291C37.701 55.5161 36.9487 54.1674 35.6525 53.767L24.9344 50.457C24.2187 50.236 23.4503 50.2559 22.747 50.5139L16.0905 52.9546" fill="#F6C358"/>
<path d="M16.8802 50.3048H6.64994V69.9996H16.8802V50.3048Z" fill="#27A2DB"/>
<path d="M11.7688 68.0485C12.7446 68.0485 13.5356 67.2575 13.5356 66.2817C13.5356 65.3059 12.7446 64.5149 11.7688 64.5149C10.793 64.5149 10.002 65.3059 10.002 66.2817C10.002 67.2575 10.793 68.0485 11.7688 68.0485Z" fill="#EBF0F3"/>
<path d="M19.7371 14.2547L9.46066 17.2382V0.000488281H19.7371V14.2547Z" fill="#D15241"/>
<path d="M35.0006 0.000488281L0 20.4975V26.3966L35.0006 5.89919L70 26.3959V20.4968L35.0006 0.000488281Z" fill="#E56353"/>
<path d="M35 48.7495C44.4475 48.7495 52.1062 41.0855 52.1062 31.6316C52.1062 22.1776 44.4475 14.5137 35 14.5137C25.5525 14.5137 17.8938 22.1776 17.8938 31.6316C17.8938 41.0855 25.5525 48.7495 35 48.7495Z" fill="#3EA69B"/>
<path d="M35 45.8934C42.8714 45.8934 49.2524 39.5082 49.2524 31.6316C49.2524 23.7551 42.8714 17.3699 35 17.3699C27.1286 17.3699 20.7476 23.7551 20.7476 31.6316C20.7476 39.5082 27.1286 45.8934 35 45.8934Z" fill="#44C4A1"/>
<path d="M34.4121 42.7279V40.7733C31.9667 40.5238 29.7716 39.5508 27.8291 37.8555L29.7825 35.526C31.2807 36.8291 32.8225 37.6048 34.4121 37.8555V32.6604C32.3957 32.1788 30.9192 31.5448 29.9828 30.7592C29.0465 29.9736 28.5783 28.809 28.5783 27.265C28.5783 25.7211 29.1163 24.4583 30.1963 23.4756C31.2764 22.494 32.681 21.9589 34.4123 21.8696V20.5306H36.1238V21.8958C38.0859 22.0397 39.9411 22.7086 41.6898 23.905L39.9499 26.3685C38.7719 25.5296 37.498 25.012 36.1238 24.8148V29.8484H36.2044C38.2558 30.3311 39.7627 30.9826 40.7251 31.8031C41.6898 32.6246 42.171 33.8166 42.171 35.3779C42.171 36.9403 41.6179 38.2129 40.5118 39.1935C39.4055 40.1763 37.9443 40.7112 36.1238 40.8006V42.7281L34.4121 42.7279ZM32.5241 25.4444C32.0689 25.8453 31.8425 26.3455 31.8425 26.9436C31.8425 27.5417 32.0211 28.0146 32.3783 28.3622C32.7332 28.7108 33.4126 29.0454 34.4121 29.3668V24.734C33.6085 24.8058 32.9791 25.0424 32.5241 25.4444ZM38.1575 37.1854C38.6562 36.7757 38.9066 36.2581 38.9066 35.6328C38.9066 35.0084 38.7106 34.5127 38.3187 34.1467C37.9245 33.7805 37.1929 33.4375 36.1237 33.116V37.9351C36.9794 37.8466 37.6568 37.5961 38.1575 37.1854Z" fill="#3EA69B"/>
</g>
<defs>
<clipPath id="clip0_2_761">
<rect width="70" height="70" fill="white"/>
</clipPath>
</defs>
</svg>
