<svg width="70" height="70" viewBox="0 0 70 70" fill="none" xmlns="http://www.w3.org/2000/svg">
<path d="M64.4065 69.9995H5.59352C3.40357 69.9995 1.6283 68.2242 1.6283 66.0342V27.3399C1.6283 25.1499 3.40357 23.3746 5.59352 23.3746H64.4063C66.5963 23.3746 68.3715 25.1499 68.3715 27.3399V66.0342C68.3715 68.2242 66.5963 69.9995 64.4065 69.9995Z" fill="#E1EFFB"/>
<path d="M64.4064 65.3778H5.5935C3.40356 65.3778 1.62842 63.6026 1.62842 61.4128V66.0344C1.62842 68.2243 3.4037 69.9996 5.5935 69.9996H64.4063C66.5962 69.9996 68.3715 68.2243 68.3715 66.0344V61.4128C68.3715 63.6026 66.5962 65.3778 64.4064 65.3778Z" fill="#CCDFED"/>
<path d="M64.4064 23.3748H57.1136C59.3036 23.3748 61.0789 25.15 61.0789 27.3398V66.0342C61.0789 68.2242 59.3036 69.9994 57.1136 69.9994H64.4064C66.5964 69.9994 68.3717 68.2242 68.3717 66.0342V27.3398C68.3715 25.15 66.5962 23.3748 64.4064 23.3748Z" fill="#CCDFED"/>
<path d="M34.9999 41.6263L2.88782 68.9317C3.59643 69.5937 4.5473 69.9994 5.59346 69.9994H64.4063C65.4524 69.9994 66.4033 69.5937 67.1119 68.9317L34.9999 41.6263Z" fill="#CCDFED"/>
<path d="M62.9327 65.3779L61.0788 63.8014C61.0788 64.672 60.3731 65.3779 59.5023 65.3779H7.0674L2.88794 68.9317L2.88808 68.9318C2.93073 68.9717 2.97448 69.0106 3.01891 69.0486C3.02124 69.0506 3.02356 69.0527 3.02602 69.0547C3.06868 69.0911 3.11229 69.1264 3.15645 69.1608C3.16096 69.1644 3.16548 69.1679 3.16999 69.1715C3.21237 69.2043 3.25571 69.2363 3.29946 69.2673C3.30643 69.2723 3.31327 69.2772 3.3201 69.2821C3.36208 69.3115 3.40473 69.3401 3.44794 69.368C3.45723 69.374 3.46667 69.38 3.4761 69.386C3.51752 69.4123 3.5595 69.4377 3.60188 69.4624C3.61377 69.4694 3.62567 69.4762 3.63756 69.4829C3.6783 69.5062 3.71959 69.5286 3.76129 69.5505C3.77551 69.5579 3.78987 69.5652 3.80422 69.5725C3.84428 69.5929 3.88461 69.6125 3.92535 69.6315C3.94231 69.6393 3.9594 69.647 3.97635 69.6547C4.01545 69.6722 4.05469 69.6892 4.09447 69.7055C4.11402 69.7134 4.13371 69.7211 4.15326 69.7288C4.19127 69.7435 4.22928 69.7581 4.26783 69.7718C4.29025 69.7797 4.31295 69.7871 4.33551 69.7948C4.37201 69.8071 4.40865 69.8191 4.4457 69.8303C4.47099 69.838 4.49656 69.845 4.52213 69.8521C4.55726 69.8619 4.5924 69.8719 4.62795 69.8808C4.65638 69.8879 4.68509 69.894 4.71367 69.9006C4.74703 69.9081 4.78025 69.9161 4.81388 69.9228C4.84574 69.929 4.87786 69.9344 4.90999 69.94C4.9413 69.9455 4.97234 69.9513 5.00378 69.956C5.0396 69.9613 5.07597 69.9654 5.11206 69.9698C5.14036 69.9732 5.16853 69.9773 5.1971 69.9802C5.2403 69.9844 5.28392 69.9872 5.32739 69.9902C5.3494 69.9917 5.37128 69.9939 5.39343 69.9949C5.4596 69.9982 5.52618 70 5.59317 70H57.1139C57.1136 70 57.1134 70 57.1132 70H64.406C64.473 70 64.5394 69.9982 64.6056 69.9949C64.6287 69.9939 64.6514 69.9915 64.6745 69.9899C64.7171 69.987 64.7598 69.9844 64.802 69.9802C64.8283 69.9776 64.8543 69.9739 64.8802 69.9706C64.8826 69.9703 64.8849 69.9701 64.8872 69.9698H64.8874C64.8878 69.9698 64.8883 69.9697 64.8887 69.9697C64.9243 69.9653 64.9601 69.9613 64.9954 69.9561C65.0148 69.9532 65.0339 69.9497 65.0532 69.9463C65.0652 69.9441 65.0774 69.9422 65.0894 69.9401H65.0896C65.0898 69.9401 65.0901 69.94 65.0905 69.94C65.1222 69.9345 65.1539 69.9293 65.1854 69.923C65.2194 69.9162 65.2531 69.9084 65.2867 69.9006C65.315 69.8942 65.3434 69.888 65.3715 69.8811C65.3901 69.8764 65.4082 69.8711 65.4266 69.8662C65.4435 69.8615 65.4606 69.8571 65.4774 69.8523C65.4804 69.8515 65.4834 69.8506 65.4864 69.8497C65.5089 69.8435 65.5313 69.8374 65.5536 69.8307C65.5908 69.8195 65.6275 69.8074 65.6643 69.7949C65.6869 69.7874 65.7094 69.78 65.7317 69.7721C65.7703 69.7584 65.8084 69.7438 65.8464 69.729C65.8661 69.7214 65.8858 69.7139 65.9052 69.7058C65.945 69.6895 65.9844 69.6724 66.0235 69.6549C66.0404 69.6474 66.0574 69.6399 66.0742 69.632C66.1151 69.613 66.1555 69.5931 66.1957 69.5728C66.21 69.5655 66.2242 69.5583 66.2384 69.5509C66.2801 69.529 66.3214 69.5066 66.3623 69.4832C66.3742 69.4765 66.3859 69.4697 66.3977 69.4628C66.4137 69.4535 66.4291 69.4436 66.445 69.4341C66.4712 69.4184 66.4977 69.4028 66.5236 69.3864C66.533 69.3804 66.5423 69.3744 66.5518 69.3684C66.595 69.3405 66.6376 69.3119 66.6796 69.2825C66.6819 69.2809 66.6844 69.2791 66.6867 69.2774C66.6912 69.2743 66.6957 69.271 66.7002 69.2679C66.7441 69.2367 66.7873 69.2047 66.8298 69.1719C66.8343 69.1685 66.8387 69.1649 66.8432 69.1614C66.8527 69.154 66.8617 69.1461 66.8711 69.1387C66.9057 69.1112 66.9402 69.0837 66.9737 69.0551C66.975 69.0539 66.9764 69.0528 66.9778 69.0516C66.9787 69.0508 66.9797 69.05 66.9806 69.0491C67.0252 69.0111 67.0688 68.9722 67.1116 68.9322L67.1117 68.9321L62.9327 65.3779Z" fill="#B2CAD8"/>
<path d="M37.1756 50.958L67.2007 24.5271C66.4839 23.815 65.4967 23.3748 64.4064 23.3748H5.59357C4.50324 23.3748 3.51601 23.815 2.79919 24.5271L32.8243 50.958C34.0682 52.0529 35.9319 52.0529 37.1756 50.958Z" fill="#B2CAD8"/>
<path d="M32.8245 50.958C34.0683 52.0529 35.9319 52.0529 37.1758 50.958L59.9784 30.8851V2.3901C59.9784 1.07009 58.9083 0 57.5883 0H12.4118C11.0918 0 10.0217 1.07009 10.0217 2.3901V30.8851L32.8245 50.958Z" fill="#FF6991"/>
<path d="M57.5882 0H50.5244C51.8444 0 52.9145 1.07009 52.9145 2.3901V30.8851L31.4681 49.7641L32.8244 50.958C34.0682 52.0529 35.9318 52.0529 37.1757 50.958L59.9783 30.8851V2.3901C59.9783 1.07009 58.9082 0 57.5882 0Z" fill="#FF507E"/>
<path d="M19.6235 26.1334H50.3764C50.9327 26.1334 51.3836 25.6826 51.3836 25.1262C51.3836 24.5699 50.9327 24.119 50.3764 24.119H19.6235C19.0672 24.119 18.6163 24.5699 18.6163 25.1262C18.6163 25.6826 19.0674 26.1334 19.6235 26.1334Z" fill="white"/>
<path d="M50.3765 31.8287H19.6235C19.0672 31.8287 18.6163 32.2796 18.6163 32.8359C18.6163 33.3922 19.0672 33.8431 19.6235 33.8431H50.3764C50.9327 33.8431 51.3836 33.3922 51.3836 32.8359C51.3836 32.2796 50.9328 31.8287 50.3765 31.8287Z" fill="white"/>
<path d="M38.5484 5.08084C37.1073 5.08084 35.8243 5.75787 35.0001 6.81114C34.1758 5.75787 32.8928 5.08084 31.4517 5.08084C28.9647 5.08084 26.9485 7.09702 26.9485 9.58405C26.9485 15.242 35.0001 18.3925 35.0001 18.3925C35.0001 18.3925 43.0516 15.2418 43.0516 9.58405C43.0516 7.09702 41.0355 5.08084 38.5484 5.08084Z" fill="white"/>
<path d="M38.6633 4.70239C37.1754 4.70239 35.8509 5.40143 35 6.48875V18.4457C35.0004 18.4455 43.3126 15.1927 43.3126 9.35161C43.3127 6.78392 41.231 4.70239 38.6633 4.70239Z" fill="#E1EFFB"/>
</svg>
