<svg width="70" height="71" viewBox="0 0 70 71" fill="none" xmlns="http://www.w3.org/2000/svg">
<g clip-path="url(#clip0_2_831)">
<path d="M34.9998 0.0571899C54.3302 0.0571899 69.9998 15.7271 69.9998 35.0572C69.9998 54.3873 54.3302 70.0572 34.9998 70.0572C15.6699 70.0572 0.00012207 54.3873 0.00012207 35.0572C0.00012207 15.7271 15.6699 0.0571899 34.9998 0.0571899Z" fill="#FF757C"/>
<path d="M22.476 32.5458C24.2781 29.5169 27.1179 26.0011 24.2341 20.6558C19.9886 2.09406 39.5531 -1.66947 42.5112 5.99107C47.3249 7.80604 47.1965 17.798 44.7211 23.0265C44.6107 25.1779 42.3738 27.0543 46.4163 32.6054L46.7073 32.5418L46.7069 32.542C41.4625 34.0622 28.0202 33.3624 22.476 32.5458Z" fill="#666666"/>
<path d="M31.4697 28.6338C31.2895 31.9581 30.1095 33.2131 28.4737 34.087C27.6414 34.8223 21.378 35.0193 19.5465 37.9759C19.1645 38.5926 18.9689 45.0824 17.913 48.0845C25.5687 53.0984 44.4312 53.0984 52.087 48.0845C51.0307 45.0824 51.1212 38.5932 50.7393 37.9765C48.8058 34.8537 42.2234 34.8176 41.4579 34.1796C39.8578 33.2839 38.7085 31.9669 38.5303 28.6339C38.5303 28.6339 36.1389 30.489 34.6523 30.2035C33.165 29.9183 31.4697 28.6338 31.4697 28.6338Z" fill="#FED198"/>
<path d="M31.3899 29.5411C32.2613 30.0596 33.7146 31.6823 35.0747 31.7007C36.43 31.719 38.3388 29.7151 38.6112 29.5673C38.5877 29.3784 38.5681 29.1815 38.5524 28.9768L38.5301 28.9943L38.5289 28.9952L38.5279 28.9954C38.4549 29.0526 36.1155 30.8803 34.6516 30.594C33.2095 30.3118 31.5714 29.0723 31.4742 28.9975L31.4465 28.9765C31.4314 29.1718 31.4121 29.3602 31.3899 29.5411Z" fill="#F0B97D"/>
<path d="M27.6166 23.1818C29.0918 26.3409 29.6375 27.5744 31.4697 28.9945C31.4697 28.9945 33.1649 30.3034 34.652 30.5946C36.1387 30.8851 38.53 28.9945 38.53 28.9945C40.3624 27.5744 40.9076 26.3409 42.3828 23.1818C42.7445 23.3744 43.1226 23.6356 43.4158 23.299C43.7094 22.9623 45.1065 18.592 44.8551 18.0024C44.6037 17.4124 44.3583 17.7887 43.984 18.0557C44.0036 17.9285 43.688 19.6349 43.6925 19.3757C43.7278 17.3127 42.2779 16.985 41.8233 11.5264C35.1369 18.1603 28.8908 15.1157 26.7146 15.5604C26.0843 15.6888 25.899 17.3037 26.0153 18.056C23.655 16.3714 26.5231 23.2305 26.5833 23.299C26.8771 23.6358 27.2548 23.3744 27.6163 23.1818H27.6166Z" fill="#FED198"/>
<path d="M28.4726 34.0857C26.2254 35.2864 22.1104 33.8355 19.5462 37.9758C19.1652 38.592 17.7034 45.0823 16.6467 48.0844C24.3021 53.9872 45.6967 54.0216 53.3528 48.0844C52.2965 45.0823 51.1206 38.5923 50.7389 37.976C48.1687 33.8243 43.7578 35.2845 41.5076 34.0765L35.2341 46.8999L28.4724 34.0855L28.4726 34.0857Z" fill="#0E7886"/>
<path d="M31.4331 39.6871C33.3849 40.3828 36.7054 40.387 38.7648 39.6844L35.2346 46.9007L31.4331 39.6871Z" fill="white"/>
<path d="M15.3572 38.609C27.4703 37.0255 32.2915 40.0649 35.0001 42.458C30.9743 40.1403 23.247 40.2934 15.6975 41.6424L15.3572 38.609Z" fill="white"/>
<path d="M54.6431 38.6088C42.5299 37.0253 37.7092 40.0645 35.0002 42.4575C39.8037 39.6917 48.8302 40.6841 54.2961 41.6849L54.6431 38.6088Z" fill="white"/>
<path d="M12.3702 42.1194C20.9123 40.1729 30.4849 39.5584 35.1301 42.2327C39.7752 39.5584 49.0874 40.1729 57.6298 42.1194C57.1407 58.9243 57.5487 44.8984 56.8971 67.3281C56.3967 67.2337 42.8963 65.2257 36.3702 67.184C35.2836 67.1834 35.0317 67.1834 33.9406 67.184C26.7758 65.1 13.5727 67.2397 13.1025 67.3281C12.4295 44.1692 12.8751 59.5301 12.3702 42.1194Z" fill="#15BDB1"/>
<path d="M13.4487 40.6167L13.5787 41.9521C21.8303 40.2005 30.7944 39.7458 35.2418 42.3065L35.2421 42.3063C35.2263 42.2943 28.6378 37.3403 13.4491 40.6165L13.4487 40.6167Z" fill="#DFE1E3"/>
<path d="M56.5516 40.6908L56.4217 42.0262C48.1699 40.2746 39.2056 39.8199 34.7585 42.3808L34.7582 42.3804C34.774 42.3686 41.3625 37.4144 56.5517 40.6907L56.5516 40.6908Z" fill="#DFE1E3"/>
<path d="M17.0151 48.9697L14.6358 49.0969L12.2677 49.2644C11.2875 49.3344 11.4511 51.09 12.4279 50.9743L15.0093 50.6686L16.9696 50.5037C17.95 50.4208 17.6735 48.9341 17.0151 48.9697ZM16.688 54.4314L12.9977 54.8627C12.2061 54.9547 12.397 56.7182 13.1578 56.5722L16.8591 55.8602C17.6327 55.7111 17.4691 54.3399 16.688 54.4314ZM17.1571 52.5168C18.1362 52.4252 18.336 53.9379 17.3602 54.0625L12.6881 54.6595C11.7126 54.7844 11.5492 53.0417 12.528 52.9501L17.1571 52.5168ZM17.8094 50.6059C18.9557 50.4986 19.1158 52.2081 17.9694 52.3154L12.5397 52.8239C11.3935 52.9312 11.234 51.2217 12.3797 51.1144L17.8094 50.6059Z" fill="#FED198"/>
<path d="M16.7071 49.3582L16.7905 50.2518L17.3862 50.1957C17.4866 49.8612 17.4441 49.5451 17.2968 49.2402L16.7068 49.358L16.7071 49.3582Z" fill="white"/>
<path d="M17.7304 51.0192L17.825 52.034L18.3815 51.9819C18.5784 51.5983 18.5696 51.2344 18.2799 50.8967L17.73 51.0191L17.7304 51.0192Z" fill="white"/>
<path d="M16.9877 52.916L17.0712 53.8092L17.7534 53.7454C17.8242 53.4177 17.7972 53.0991 17.6639 52.7899L16.9877 52.916Z" fill="white"/>
<path d="M16.4285 54.8901L16.537 55.5969L17.221 55.4797C17.283 55.2104 17.2472 54.9578 17.1049 54.7234L16.4283 54.8897V54.8901H16.4285Z" fill="white"/>
<path d="M52.985 48.9697L55.3643 49.0969L57.7324 49.2644C58.7127 49.3344 58.5491 51.09 57.5724 50.9743L54.9909 50.6686L53.0306 50.5037C52.0501 50.4208 52.3265 48.9341 52.985 48.9697ZM53.312 54.4314L57.0023 54.8627C57.794 54.9547 57.6031 56.7182 56.8423 56.5722L53.1409 55.8602C52.3675 55.7111 52.5309 54.3399 53.312 54.4314ZM52.8428 52.5168C51.8637 52.4252 51.6639 53.9379 52.6397 54.0625L57.3119 54.6595C58.2873 54.7844 58.4507 53.0417 57.4719 52.9501L52.8428 52.5168ZM52.1906 50.6059C51.0442 50.4986 50.8841 52.2081 52.0305 52.3154L57.4602 52.8239C58.6064 52.9312 58.7661 51.2217 57.6203 51.1144L52.1906 50.6059Z" fill="#FED198"/>
<path d="M53.293 49.3582L53.2095 50.2518L52.6134 50.1957C52.5131 49.8612 52.5557 49.5451 52.703 49.2402L53.293 49.358V49.3582Z" fill="white"/>
<path d="M52.2692 51.0192L52.1746 52.034L51.6183 51.9819C51.4213 51.5983 51.43 51.2344 51.7198 50.8967L52.2698 51.0191L52.2692 51.0192Z" fill="white"/>
<path d="M53.0123 52.916L52.9288 53.8092L52.2465 53.7454C52.1757 53.4177 52.2028 53.0991 52.3361 52.7899L53.0123 52.916Z" fill="white"/>
<path d="M53.5714 54.8901L53.4628 55.5969L52.7788 55.4797C52.7168 55.2104 52.7526 54.9578 52.895 54.7234L53.5715 54.8897V54.8901H53.5714Z" fill="white"/>
<path d="M33.9679 41.6733H36.3704V67.1835H33.9679V41.6733Z" fill="#20D0C2"/>
<path d="M56.3327 22.2872C61.9028 22.2872 66.4183 17.7717 66.4183 12.2016C66.4183 6.63149 61.9028 2.11601 56.3327 2.11601C50.7625 2.11601 46.2471 6.63149 46.2471 12.2016C46.2471 17.7717 50.7625 22.2872 56.3327 22.2872Z" fill="#FCD462"/>
<path d="M56.3347 20.1128C51.9722 20.1128 48.4236 16.5639 48.4236 12.2017C48.4236 7.83954 51.9724 4.29059 56.3347 4.29059C60.6967 4.29059 64.2455 7.83954 64.2455 12.2017C64.2455 16.5639 60.6966 20.1128 56.3347 20.1128Z" fill="#DC8744"/>
<path d="M56.0154 18.2181V17.1585C54.6895 17.023 53.4993 16.4959 52.4445 15.5767L53.5041 14.3139C54.3174 15.0204 55.1542 15.4408 56.0154 15.5767V12.7606C54.9216 12.4996 54.1213 12.1557 53.6134 11.7299C53.1055 11.3041 52.8508 10.6727 52.8508 9.8358C52.8508 8.99888 53.1439 8.31444 53.7292 7.78166C54.3144 7.24957 55.0769 6.95951 56.0154 6.91112V6.18527H56.9444V6.92531C58.0088 7.00331 59.0151 7.36601 59.9636 8.01442L59.0198 9.3498C58.3813 8.89491 57.6891 8.61446 56.9442 8.50751V11.2361H56.9879C58.1007 11.4977 58.9181 11.8509 59.4408 12.2957C59.9635 12.7409 60.2246 13.3872 60.2246 14.2336C60.2246 15.0804 59.9245 15.7704 59.3245 16.3019C58.7243 16.8345 57.9311 17.1245 56.9441 17.173V18.2178H56.0154V18.2181ZM54.9917 8.84905C54.7454 9.06637 54.622 9.33756 54.622 9.66171C54.622 9.98586 54.7184 10.2423 54.912 10.4308C55.1057 10.6198 55.4731 10.801 56.0153 10.9754V8.46393C55.58 8.50294 55.2387 8.63104 54.9917 8.84905ZM58.0475 15.2136C58.3181 14.9914 58.4538 14.711 58.4538 14.372C58.4538 14.0335 58.347 13.7648 58.1344 13.5664C57.9217 13.3678 57.5248 13.1818 56.9442 13.0078V15.6199C57.4085 15.572 57.7765 15.4361 58.0475 15.2136Z" fill="#F6C358"/>
</g>
<defs>
<clipPath id="clip0_2_831">
<rect width="70" height="70.4575" fill="white"/>
</clipPath>
</defs>
</svg>
