<svg width="45" height="43" viewBox="0 0 45 43" fill="none" xmlns="http://www.w3.org/2000/svg">
<path d="M37.5963 0C27.7539 1.43277 22.1556 1.97355 12.0128 2.49045C7.63049 11.7681 5.00036 16.9267 0 26.0437C3.12734 24.3821 4.80952 23.8118 7.68294 23.4473L9.79509 26.7326C9.79509 26.7326 10.2967 21.6457 12.6993 17.1152C15.1019 12.5847 19.4582 10.5712 19.4582 10.5712C24.4124 8.74348 26.528 8.29699 31.471 9.0345C35.2124 10.1208 34.8567 12.597 30.7846 15.817C33.5704 14.2525 35.3257 12.8232 35.3257 11.0481C35.3257 9.27295 34.1419 7.85757 32.1311 6.38509L37.5963 0Z" fill="#612C7E"/>
<path d="M11.6363 21.8312C13.4558 16.4053 15.1518 14.1621 19.3984 11.5704V36.5279L15.5243 31.846C15.5243 31.846 13.9666 33.5681 11.6363 36.5279V21.8312Z" fill="#612C7E"/>
<path d="M29.9133 18.0955V23.9242H20.0918V18.0955H29.9133Z" fill="#612C7E"/>
<path d="M12.0656 43H33.8208C38.0979 42.5231 42.4806 39.4763 44.3287 34.7338C45.7729 29.3835 44.9624 25.4344 41.1605 21.7517C37.8867 18.8903 35.8009 18.0955 30.7054 18.0955V24.0037C33.2412 24.2254 34.2432 24.2156 36.0385 25.4344C37.8075 27.024 38.7173 29.0906 38.3883 31.2366C37.9131 34.3364 36.3083 35.9626 32.8439 37.1183H18.8115L15.4715 32.9852L12.0656 37.1183V43Z" fill="#612C7E"/>
<path d="M2.7722 25.7586L3.17136 25.6198L6.95636 36.5851L6.5572 36.7238L2.7722 25.7586Z" fill="#612C7E"/>
<path d="M7.61684 32.0734C7.61684 33.4927 6.47025 34.6433 5.05586 34.6433C3.64147 34.6433 2.49488 33.4927 2.49488 32.0734C2.49488 30.6541 3.64147 29.5035 5.05586 29.5035C6.47025 29.5035 7.61684 30.6541 7.61684 32.0734Z" fill="#612C7E"/>
<path d="M2.7722 25.7586L3.17136 25.6198L6.95636 36.5851L6.5572 36.7238L2.7722 25.7586Z" fill="#612C7E"/>
</svg>
