<svg width="70" height="70" viewBox="0 0 70 70" fill="none" xmlns="http://www.w3.org/2000/svg">
<g clip-path="url(#clip0_2_902)">
<path d="M54.3103 50.6896H36.227V41.0734C36.227 40.4069 35.6872 39.8664 35.02 39.8664C34.353 39.8664 33.8131 40.4069 33.8131 41.0734V50.6896H15.6897C12.3624 50.6896 9.65521 53.3968 9.65521 56.7241V63.9655C9.65521 64.632 10.195 65.1725 10.8622 65.1725C11.5293 65.1725 12.0691 64.632 12.0691 63.9655V56.7241C12.0691 54.7276 13.6933 53.1034 15.6898 53.1034H33.8134V63.9654C33.8134 64.6319 34.3531 65.1723 35.0203 65.1723C35.6874 65.1723 36.2273 64.6319 36.2273 63.9654V53.1034H54.3106C56.3071 53.1034 57.9313 54.7276 57.9313 56.7241V63.9655C57.9313 64.632 58.4711 65.1725 59.1383 65.1725C59.8053 65.1725 60.3452 64.632 60.3452 63.9655V56.7241C60.3448 53.3969 57.6375 50.6896 54.3103 50.6896Z" fill="#E4EAF6"/>
<path d="M41.4165 29.2334V24.2428H28.5833V29.2334L34.9999 34.937L41.4165 29.2334Z" fill="#E6AF78"/>
<path d="M51.3382 31.5679L42.5159 29.4921C42.3827 29.4606 42.2602 29.4076 42.1454 29.3431L34.9999 33.5112L28.133 29.1414C27.9552 29.3088 27.7346 29.4332 27.484 29.4922L18.6617 31.568C17.3735 31.8711 16.463 33.0207 16.463 34.3441V39.928C16.463 40.7155 17.1014 41.3539 17.8889 41.3539H52.1109C52.8984 41.3539 53.5369 40.7155 53.5369 39.928V34.3441C53.5368 33.0205 52.6264 31.871 51.3382 31.5679Z" fill="#707487"/>
<path d="M28.5833 24.2428V29.5084C36.6665 32.4206 41.4165 25.1319 41.4165 25.1319V24.2426H28.5833V24.2428Z" fill="#D29B6E"/>
<path d="M25.7315 7.84477L26.3528 21.5132C26.4109 22.7902 27.0369 23.9743 28.0594 24.7411L31.0072 26.952C31.7477 27.5074 32.6482 27.8076 33.5738 27.8076H36.4258C37.3513 27.8076 38.2519 27.5074 38.9924 26.952L41.9402 24.7411C42.9627 23.9741 43.5887 22.7902 43.6468 21.5132L44.2681 7.84477H25.7315Z" fill="#F0C087"/>
<path d="M32.8611 10.6966C35.7131 10.6966 39.9907 9.9836 41.0053 7.84464H25.7315L26.3528 21.5131C26.4109 22.79 27.0369 23.9741 28.0594 24.741L31.0072 26.9519C31.7477 27.5072 32.6482 27.8074 33.5738 27.8074H34.9999C33.574 27.8074 30.7223 24.9555 30.7223 21.3908C30.7223 19.6473 30.7223 14.9742 30.7223 12.8353C30.7223 12.1226 31.4353 10.6966 32.8611 10.6966Z" fill="#E6AF78"/>
<path d="M48.3028 36.7266L52.9226 32.5765C53.3097 33.0666 53.5368 33.6835 53.5368 34.3438V39.9277C53.5368 40.7152 52.8983 41.3537 52.1108 41.3537H47.1202V39.3786C47.1202 38.3668 47.5502 37.4028 48.3028 36.7266Z" fill="#5B5D6E"/>
<path d="M21.6971 36.7266L17.0772 32.5765C16.6902 33.0666 16.4631 33.6835 16.4631 34.3438V39.9277C16.4631 40.7152 17.1016 41.3537 17.8891 41.3537H22.8797V39.3786C22.8797 38.3668 22.4497 37.4028 21.6971 36.7266Z" fill="#5B5D6E"/>
<path d="M36.7825 41.3537H33.2175L33.6632 34.937H36.3368L36.7825 41.3537Z" fill="#5B5D6E"/>
<path d="M36.7825 33.5112H33.2178V34.3006C33.2178 35.0459 33.8219 35.6499 34.5671 35.6499H35.4332C36.1785 35.6499 36.7825 35.0459 36.7825 34.3006V33.5112Z" fill="#515262"/>
<path d="M28.4832 27.6461L34.9999 33.5112C34.9999 33.5112 33.175 34.4326 30.9227 36.2895C30.458 36.6725 29.7554 36.5172 29.5062 35.9691L26.4445 29.2334L27.413 27.7807C27.6542 27.4189 28.16 27.3552 28.4832 27.6461Z" fill="#5B5D6E"/>
<path d="M41.5168 27.6461L34.9999 33.5112C34.9999 33.5112 36.8249 34.4326 39.0772 36.2895C39.5419 36.6725 40.2445 36.5172 40.4937 35.9691L43.5555 29.2334L42.587 27.7807C42.3457 27.4189 41.8397 27.3552 41.5168 27.6461Z" fill="#5B5D6E"/>
<path d="M39.3223 3.12142L39.9907 7.84477C43.0417 8.45494 43.4815 13.2431 43.5448 14.6108C43.5563 14.859 43.6356 15.0988 43.7703 15.3075L44.9343 17.1133C44.9343 17.1133 44.5359 14.1278 46.3603 12.1227C46.3603 12.1227 46.9866 0.269608 39.3223 3.12142Z" fill="#785550"/>
<path d="M45.6495 16.808L44.8444 20.0286C44.7491 20.4102 44.406 20.6778 44.0128 20.6778C43.5807 20.6778 43.216 20.3559 43.1623 19.927L42.7506 16.633C42.6404 15.7522 43.3273 14.9741 44.215 14.9741H44.2179C45.1778 14.9744 45.8825 15.8766 45.6495 16.808Z" fill="#F0C087"/>
<path d="M26.4147 1.84406L27.4692 2.56443C22.7014 6.08466 23.5926 12.1224 23.5926 12.1224C25.0185 13.5484 25.0185 17.1131 25.0185 17.1131L26.4445 15.6871C26.4445 15.6871 25.8942 11.5682 28.5835 9.98346C31.0789 8.51305 33.2622 9.27047 35.4902 9.27047C41.4611 9.27047 43.1322 7.02022 42.8427 4.27984C42.6925 2.86193 40.5247 -0.0915993 34.9999 0.00218957C32.7703 0.0401973 28.5833 0.715176 26.4147 1.84406Z" fill="#694B4B"/>
<path d="M25.9989 8.6469C25.9989 8.6469 25.2415 5.66138 27.4693 2.56443C22.7016 6.08466 23.5927 12.1224 23.5927 12.1224C25.0187 13.5484 25.0187 17.1131 25.0187 17.1131L26.4446 15.6871C26.4446 15.6871 25.8943 11.5682 28.5836 9.98346C31.079 8.51305 33.2624 9.27047 35.4903 9.27047C36.4614 9.27047 37.3076 9.20539 38.0613 9.09397C33.4627 9.24832 30.7519 5.76528 25.9989 8.6469Z" fill="#5A4146"/>
<path d="M24.3505 16.808L25.1557 20.0286C25.2509 20.4102 25.594 20.6778 25.9872 20.6778C26.4193 20.6778 26.784 20.3559 26.8377 19.927L27.2494 16.633C27.3596 15.7522 26.6727 14.9741 25.785 14.9741H25.7821C24.8221 14.9744 24.1176 15.8766 24.3505 16.808Z" fill="#E6AF78"/>
<path d="M43.8674 39.9278H39.6789C39.0636 39.9278 38.5648 40.4266 38.5648 41.0419V41.3538H44.9814V41.0419C44.9814 40.4266 44.4826 39.9278 43.8674 39.9278Z" fill="#5B5D6E"/>
<path d="M39.8276 70H30.1724C29.5059 70 28.9655 69.4596 28.9655 68.7931V63.9655C28.9655 63.299 29.5059 62.7586 30.1724 62.7586H39.8276C40.4941 62.7586 41.0346 63.299 41.0346 63.9655V68.7931C41.0344 69.4596 40.4941 70 39.8276 70Z" fill="#FFD782"/>
<path d="M37.4137 67.5861H32.5862C31.9197 67.5861 31.3792 67.0457 31.3792 66.3792C31.3792 65.7127 31.9197 65.1722 32.5862 65.1722H37.4137C38.0802 65.1722 38.6206 65.7127 38.6206 66.3792C38.6206 67.0458 38.0802 67.5861 37.4137 67.5861Z" fill="#FFC36E"/>
<path d="M63.9654 70H54.3102C53.6437 70 53.1032 69.4596 53.1032 68.7931V63.9655C53.1032 63.299 53.6437 62.7586 54.3102 62.7586H63.9654C64.6319 62.7586 65.1723 63.299 65.1723 63.9655V68.7931C65.1723 69.4596 64.6319 70 63.9654 70Z" fill="#C3E678"/>
<path d="M61.5516 67.5861H56.7241C56.0576 67.5861 55.5172 67.0457 55.5172 66.3792C55.5172 65.7127 56.0576 65.1722 56.7241 65.1722H61.5516C62.2181 65.1722 62.7586 65.7127 62.7586 66.3792C62.7586 67.0458 62.2181 67.5861 61.5516 67.5861Z" fill="#A5D76E"/>
<path d="M15.6897 70H6.03447C5.36796 70 4.82751 69.4596 4.82751 68.7931V63.9655C4.82751 63.299 5.36796 62.7586 6.03447 62.7586H15.6897C16.3562 62.7586 16.8966 63.299 16.8966 63.9655V68.7931C16.8965 69.4596 16.3562 70 15.6897 70Z" fill="#FF6464"/>
<path d="M13.2759 67.5861H8.44838C7.78187 67.5861 7.24142 67.0457 7.24142 66.3792C7.24142 65.7127 7.78187 65.1722 8.44838 65.1722H13.2759C13.9424 65.1722 14.4829 65.7127 14.4829 66.3792C14.4827 67.0458 13.9424 67.5861 13.2759 67.5861Z" fill="#D2555A"/>
</g>
<defs>
<clipPath id="clip0_2_902">
<rect width="70" height="70" fill="white"/>
</clipPath>
</defs>
</svg>
