<svg width="70" height="70" viewBox="0 0 70 70" fill="none" xmlns="http://www.w3.org/2000/svg">
<g clip-path="url(#clip0_2_867)">
<path d="M35.0001 70.0001C54.3301 70.0001 70.0001 54.3301 70.0001 35.0001C70.0001 15.6701 54.3301 0 35.0001 0C15.6701 0 0 15.6701 0 35.0001C0 54.3301 15.6701 70.0001 35.0001 70.0001Z" fill="#FBD303"/>
<path d="M51.4981 5.96533H18.502C17.57 5.96533 16.8242 6.71098 16.8242 7.64315V62.4502C16.8242 63.3822 17.5699 64.128 18.502 64.128H51.4514C52.3834 64.128 53.1292 63.3823 53.1292 62.4502V7.59655C53.1292 6.71098 52.3836 5.96533 51.4981 5.96533Z" fill="#646B79"/>
<path d="M52.0107 10.9055H17.9427V56.7645H52.0107V10.9055Z" fill="#6EB1E1"/>
<path d="M37.3301 8.24902H32.6697C32.4368 8.24902 32.2502 8.4354 32.2502 8.66851C32.2502 8.90148 32.4366 9.088 32.6697 9.088H37.3767C37.6097 9.088 37.7962 8.90162 37.7962 8.66851C37.7496 8.4354 37.5633 8.24902 37.3301 8.24902Z" fill="#4F5565"/>
<path d="M35 62.7297C36.3384 62.7297 37.4235 61.6447 37.4235 60.3063C37.4235 58.9678 36.3384 57.8828 35 57.8828C33.6616 57.8828 32.5765 58.9678 32.5765 60.3063C32.5765 61.6447 33.6616 62.7297 35 62.7297Z" fill="#4F5565"/>
<path d="M45.4395 41.8509L43.9482 41.1518L46.9308 34.8602H27.0306V33.1825H49.6339L45.4395 41.8509Z" fill="#FCFCFD"/>
<path d="M42.4101 51.1253C43.6971 51.1253 44.7404 50.082 44.7404 48.795C44.7404 47.508 43.6971 46.4647 42.4101 46.4647C41.1231 46.4647 40.0798 47.508 40.0798 48.795C40.0798 50.082 41.1231 51.1253 42.4101 51.1253Z" fill="#4F5565"/>
<path d="M42.4102 49.9135C43.0279 49.9135 43.5287 49.4127 43.5287 48.7949C43.5287 48.1772 43.0279 47.6764 42.4102 47.6764C41.7924 47.6764 41.2916 48.1772 41.2916 48.7949C41.2916 49.4127 41.7924 49.9135 42.4102 49.9135Z" fill="#F1F3F7"/>
<path d="M34.0213 51.1253C35.3083 51.1253 36.3516 50.082 36.3516 48.795C36.3516 47.508 35.3083 46.4647 34.0213 46.4647C32.7343 46.4647 31.691 47.508 31.691 48.795C31.691 50.082 32.7343 51.1253 34.0213 51.1253Z" fill="#4F5565"/>
<path d="M34.0213 49.9135C34.639 49.9135 35.1398 49.4127 35.1398 48.7949C35.1398 48.1772 34.639 47.6764 34.0213 47.6764C33.4035 47.6764 32.9027 48.1772 32.9027 48.7949C32.9027 49.4127 33.4035 49.9135 34.0213 49.9135Z" fill="#F1F3F7"/>
<path d="M21.205 27.9162C20.739 27.9162 20.3662 28.289 20.3662 28.755C20.3662 29.2211 20.7391 29.5938 21.205 29.5938H23.6285V27.916L21.205 27.9162Z" fill="#F0582F"/>
<path d="M45.02 40.6392H31.0387L25.3063 28.3822C25.1666 28.1027 24.8869 27.9161 24.5607 27.9161H23.6287V29.594H24.0016L29.7805 41.8509C29.9203 42.1305 30.2 42.317 30.5262 42.317H45.0202C45.5329 42.317 45.999 42.7365 45.999 43.2958C45.999 43.8085 45.5795 44.2745 45.0202 44.2745H30.6658C30.1997 44.2745 29.827 44.6474 29.827 45.1134C29.827 45.5793 30.1999 45.9522 30.6658 45.9522H45.02C46.4647 45.9522 47.6764 44.7871 47.6764 43.2958C47.6765 41.8508 46.4648 40.6392 45.02 40.6392Z" fill="#FCFCFD"/>
<path d="M17.9427 10.9055V20.2731C17.9427 22.1373 19.4806 23.6752 21.3448 23.6752C23.209 23.6752 24.7469 22.1373 24.7469 20.2731V10.9055H17.9427Z" fill="#F0582F"/>
<path d="M24.7937 10.9055V20.2731C24.7937 22.1373 26.3316 23.6752 28.1958 23.6752C30.06 23.6752 31.5979 22.1373 31.5979 20.2731V10.9055H24.7937Z" fill="#F1F3F7"/>
<path d="M31.5979 10.9055V20.2731C31.5979 22.1373 33.1358 23.6752 35 23.6752C36.8642 23.6752 38.4021 22.1373 38.4021 20.2731V10.9055H31.5979Z" fill="#F0582F"/>
<path d="M45.2065 10.9055V20.2731C45.2065 22.1373 46.7444 23.6752 48.6086 23.6752C50.4728 23.6752 52.0107 22.1373 52.0107 20.2731V10.9055H45.2065Z" fill="#F0582F"/>
<path d="M38.4021 10.9055V20.2731C38.4021 22.1373 39.94 23.6752 41.8042 23.6752C43.6684 23.6752 45.2063 22.1373 45.2063 20.2731V10.9055H38.4021Z" fill="#F1F3F7"/>
</g>
<defs>
<clipPath id="clip0_2_867">
<rect width="70" height="70" fill="white"/>
</clipPath>
</defs>
</svg>
