<svg width="70" height="70" viewBox="0 0 70 70" fill="none" xmlns="http://www.w3.org/2000/svg">
<path d="M54.0502 9.79452V43.6077C54.0502 45.0698 52.8648 46.2552 51.4027 46.2552H2.64749C1.18539 46.255 0 45.0698 0 43.6075V9.79452C0 8.12116 1.35647 6.76453 3.02999 6.76453H51.0204C52.6938 6.76453 54.0502 8.121 54.0502 9.79452Z" fill="#29ABE2"/>
<path d="M3.67737 42.5775V10.4418H50.3737V42.5775H3.67737Z" fill="white"/>
<path d="M33.4972 50.3013H20.554V46.2545H33.4972V50.3013Z" fill="#269DC6"/>
<path d="M20.5867 24.7835C18.278 24.7835 16.3997 22.9052 16.3997 20.5965C16.3997 18.2877 18.278 16.4094 20.5867 16.4094C22.8954 16.4094 24.7737 18.2877 24.7737 20.5965C24.7737 22.9052 22.8954 24.7835 20.5867 24.7835ZM20.5867 18.1915C19.2605 18.1915 18.1817 19.2703 18.1817 20.5965C18.1817 21.9226 19.2605 23.0014 20.5867 23.0014C21.9127 23.0014 22.9917 21.9226 22.9917 20.5965C22.9918 19.2703 21.9129 18.1915 20.5867 18.1915Z" fill="#808080"/>
<path d="M33.4643 36.128C31.1556 36.128 29.2771 34.2497 29.2771 31.9409C29.2771 29.6322 31.1556 27.7539 33.4643 27.7539C35.773 27.7539 37.6515 29.6322 37.6515 31.9409C37.6515 34.2497 35.773 36.128 33.4643 36.128ZM33.4643 29.5358C32.1383 29.5358 31.0592 30.6148 31.0592 31.9408C31.0592 33.267 32.1383 34.3457 33.4643 34.3457C34.7903 34.3457 35.8694 33.267 35.8694 31.9408C35.8694 30.6148 34.7905 29.5358 33.4643 29.5358Z" fill="#808080"/>
<path d="M25.8299 36.8669L24.0822 36.5199L28.2212 15.6703L29.9691 16.0175L25.8299 36.8669Z" fill="#808080"/>
<path d="M43.2277 52.9488H10.8239C10.8239 52.2178 11.121 51.5558 11.599 51.0765C12.0786 50.5984 12.7404 50.3013 13.4713 50.3013H40.5802C42.0423 50.3013 43.2277 51.4868 43.2277 52.9488Z" fill="#29ABE2"/>
<path d="M51.0202 6.76453H17.3396L18.4604 10.4417H50.3738V24.8861H54.0502V9.79452C54.0502 8.121 52.6937 6.76453 51.0202 6.76453Z" fill="#6EC6EB"/>
<path d="M20.826 18.2031L22.1197 22.4482C22.6521 22.0067 22.9918 21.3405 22.9918 20.5964C22.9918 19.3509 22.0402 18.3237 20.826 18.2031ZM50.3737 10.4418H18.4602L20.2823 16.4203C20.3827 16.413 20.4841 16.4092 20.5865 16.4092C22.8953 16.4092 24.7736 18.2875 24.7736 20.5963C24.7736 22.1501 23.923 23.5087 22.663 24.2314L24.9994 31.8976L28.2209 15.6703L29.9688 16.0174L26.0994 35.5071L27.6822 40.7004C27.8159 40.1213 28.3353 39.6898 28.9549 39.6898H30.6869H32.984L33.1076 36.1128C30.9651 35.9314 29.2767 34.1296 29.2767 31.9407C29.2767 29.6543 31.1187 27.7901 33.3966 27.7542L33.4958 24.8859H45.2328H50.3732V10.4418" fill="white"/>
<path d="M20.5867 16.4094C20.4845 16.4094 20.3829 16.4132 20.2825 16.4204L20.8258 18.2033C22.0401 18.3237 22.9917 19.3511 22.9917 20.5966C22.9917 21.3407 22.652 22.0069 22.1196 22.4483L22.6631 24.2315C23.9232 23.509 24.7738 22.1503 24.7738 20.5965C24.7739 18.2877 22.8955 16.4094 20.5867 16.4094Z" fill="#A9A9A9"/>
<path d="M33.3354 29.5394C32.0691 29.6067 31.0592 30.6582 31.0592 31.941C31.0592 33.1674 31.9821 34.1823 33.1698 34.3282L33.3354 29.5394Z" fill="white"/>
<path d="M33.3971 27.7544C31.1191 27.7904 29.2771 29.6546 29.2771 31.9409C29.2771 34.1296 30.9654 35.9315 33.108 36.1131L33.1698 34.3281C31.9821 34.1825 31.0592 33.1675 31.0592 31.9409C31.0592 30.6582 32.0689 29.6066 33.3353 29.5394L33.3971 27.7544Z" fill="#A9A9A9"/>
<path d="M28.2212 15.6703L24.9998 31.8976L26.0998 35.5072L29.9691 16.0175L28.2212 15.6703Z" fill="#A9A9A9"/>
<path d="M27.6493 50.3013H22.09L22.8974 52.9488H27.6493V50.3013Z" fill="#6EC6EB"/>
<path d="M62.7269 59.4333H32.3016L32.909 41.8724L33.4963 24.8861H61.5323L62.7269 59.4333Z" fill="#F9DE58"/>
<path d="M41.3003 41.8724H40.5457V59.4333H42.6057H49.2841L49.3401 57.8133H42.6059V43.1761C42.6059 42.4561 42.0204 41.8724 41.3003 41.8724Z" fill="#D7C156"/>
<path d="M40.5456 40.9947V61.9307C40.5456 62.6518 39.9604 63.2355 39.2395 63.2355H28.9554C28.2345 63.2355 27.6493 62.6516 27.6493 61.9307V40.9947C27.6493 40.2738 28.2345 39.6899 28.9554 39.6899H39.2395C39.9604 39.6899 40.5456 40.2736 40.5456 40.9947Z" fill="#808080"/>
<path d="M39.3856 42.7976V59.7121H28.8096V42.7976H39.3856Z" fill="white"/>
<path d="M34.0974 62.5701C34.6556 62.5701 35.1082 62.1176 35.1082 61.5593C35.1082 61.0011 34.6556 60.5486 34.0974 60.5486C33.5392 60.5486 33.0867 61.0011 33.0867 61.5593C33.0867 62.1176 33.5392 62.5701 34.0974 62.5701Z" fill="#4D4D4D"/>
<path d="M37.0929 53.0551C37.0929 51.4034 35.7491 50.0598 34.0976 50.0598C33.5489 50.0598 33.1024 49.6133 33.1024 49.0646C33.1024 48.5158 33.5489 48.0693 34.0976 48.0693H36.0929V46.0692H35.0972V44.3523H33.0971V46.2447C31.9366 46.6578 31.1023 47.7641 31.1023 49.0646C31.1023 50.7162 32.446 52.0599 34.0976 52.0599C34.6463 52.0599 35.0928 52.5064 35.0928 53.0551C35.0928 53.6038 34.6463 54.0503 34.0976 54.0503H32.1024V56.0504H33.0972V57.7677H35.0974V55.8751C36.258 55.4623 37.0929 54.3558 37.0929 53.0551Z" fill="#86D359"/>
<path d="M40.5456 59.4333V61.9305C40.5456 62.6516 39.9604 63.2353 39.2395 63.2353H40.5456V59.4333Z" fill="white"/>
<path d="M39.2395 39.6899H30.6873L31.6343 42.7977H39.3857V59.7122H36.7887L37.8623 63.2355H39.2395C39.9605 63.2355 40.5456 62.6516 40.5456 61.9307V59.4334V41.8725V40.9947C40.5456 40.2736 39.9605 39.6899 39.2395 39.6899Z" fill="#A9A9A9"/>
<path d="M34.4801 52.1363L34.9274 53.604C35.0319 53.4466 35.0928 53.2578 35.0928 53.055C35.0928 52.6417 34.8396 52.2864 34.4801 52.1363ZM39.3856 42.7976H31.6343L32.7328 46.4024C32.85 46.3421 32.9716 46.2893 33.0972 46.2448V44.3524H35.0973V46.0693H36.093V48.0694H34.0977C33.7977 48.0694 33.5283 48.2029 33.3457 48.4134L33.8367 50.025C33.9199 50.0477 34.0075 50.0597 34.0977 50.0597C35.7494 50.0597 37.0931 51.4033 37.0931 53.055C37.0931 54.177 36.4719 55.1544 35.5561 55.6668L36.7888 59.7121H39.3858L39.3856 42.7976Z" fill="white"/>
<path d="M33.8367 50.025L34.48 52.1363C34.8395 52.2865 35.0927 52.6418 35.0927 53.055C35.0927 53.2577 35.0318 53.4466 34.9273 53.6041L35.5559 55.667C36.4717 55.1546 37.0928 54.1771 37.0928 53.0552C37.0928 51.4035 35.749 50.0599 34.0975 50.0599C34.0074 50.0597 33.92 50.0476 33.8367 50.025ZM35.0973 44.3524H33.0971V46.2448C32.9717 46.2895 32.8499 46.3423 32.7328 46.4024L33.3455 48.4134C33.5281 48.2028 33.7975 48.0695 34.0975 48.0695H36.0928V46.0694H35.0971L35.0973 44.3524Z" fill="#ADE18E"/>
<path d="M15.3317 47.3258H6.50513V57.7797H15.3317V47.3258Z" fill="#F9DE58"/>
<path d="M15.3317 47.3258H13.0165V57.7442H15.3317V47.3258Z" fill="#E0BF20"/>
<path d="M7.66282 47.3258H6.50513V57.7442H7.66282V47.3258Z" fill="#E0BF20"/>
<path d="M19.0416 56.4117H10.2151V58.2362H19.0416V56.4117Z" fill="#F9DE58"/>
<path d="M19.0417 56.4117H16.7264V58.2301H19.0417V56.4117Z" fill="#E0BF20"/>
<path d="M11.3728 56.4117H10.2151V58.2301H11.3728V56.4117Z" fill="#E0BF20"/>
<path d="M11.7428 59.5552H2.91626V61.3797H11.7428V59.5552Z" fill="#F9DE58"/>
<path d="M11.743 59.5552H9.42773V61.3735H11.743V59.5552Z" fill="#E0BF20"/>
<path d="M4.07395 59.5552H2.91626V61.3735H4.07395V59.5552Z" fill="#E0BF20"/>
<path d="M61.5323 24.8861H50.3737H45.2333L49.9439 40.3413L49.9723 39.5193H62.0383L61.5323 24.8861Z" fill="#FBE98E"/>
<path d="M69.9993 63.1915H49.1541L49.2772 59.6323L49.9722 39.5193H69.1812L69.8762 59.6323L69.9993 63.1915Z" fill="#FC7A51"/>
<path d="M69.1819 39.5197H69.1812L69.8763 59.6323L69.9994 63.1916H65.2633L65.2635 63.1917H70L69.1819 39.5197Z" fill="white"/>
<path d="M69.1812 39.5196H58.0483L64.7696 61.5715H69.9433L69.9993 63.1915L69.8762 59.6323L69.1812 39.5193" fill="#FDA589"/>
<path d="M54.5454 27.0157C54.0532 27.0157 53.6543 27.4146 53.6543 27.9068V31.1432C53.6543 34.4959 51.0144 37.317 47.6627 37.3964C44.2099 37.4782 41.375 34.6932 41.375 31.2585V27.9069C41.375 27.4148 40.9761 27.0159 40.4839 27.0159C39.9918 27.0159 39.5929 27.4148 39.5929 27.9069V31.1257C39.5929 35.4634 43.0247 39.0965 47.3615 39.1788C51.7994 39.2629 55.4364 35.6775 55.4364 31.2585V27.9069C55.4364 27.4146 55.0374 27.0157 54.5454 27.0157Z" fill="#2BE0C6"/>
<path d="M54.7597 41.9474C55.2519 41.9474 55.6507 42.3462 55.6507 42.8384V44.7652C55.6507 46.9616 57.4482 48.8172 59.6443 48.7801C61.7782 48.744 63.5033 46.9969 63.5033 44.8544V42.8384C63.5033 42.3462 63.9021 41.9474 64.3943 41.9474C64.8865 41.9474 65.2853 42.3462 65.2853 42.8384V44.7473C65.2853 47.8645 62.831 50.4873 59.7146 50.5611C56.5045 50.637 53.8687 48.0477 53.8687 44.8544V42.8384C53.8687 42.3462 54.2675 41.9474 54.7597 41.9474Z" fill="#F9DE58"/>
<path d="M64.7696 61.5715H49.2101L49.1541 63.1916H65.2632L64.7696 61.5715Z" fill="#D97150"/>
<path d="M69.9433 61.5715H64.7697L65.2634 63.1917L69.9994 63.1916L69.9433 61.5715Z" fill="#DA937D"/>
</svg>
