<svg width="50" height="50" viewBox="0 0 50 50" fill="none" xmlns="http://www.w3.org/2000/svg">
<path d="M25 50C38.8071 50 50 38.8071 50 25C50 11.1929 38.8071 0 25 0C11.1929 0 0 11.1929 0 25C0 38.8071 11.1929 50 25 50Z" fill="white"/>
<path d="M18.7222 28.0667H24.9999" stroke="#A49EB5" stroke-width="1.5" stroke-miterlimit="10" stroke-linecap="round" stroke-linejoin="round"/>
<path d="M18.7222 17.9719L14.0139 13.2636" stroke="#252C37" stroke-width="1.5" stroke-miterlimit="10" stroke-linecap="round" stroke-linejoin="round"/>
<path d="M18.672 13.3139L13.9636 18.0222" stroke="#252C37" stroke-width="1.5" stroke-miterlimit="10" stroke-linecap="round" stroke-linejoin="round"/>
<path d="M18.7222 23.0445H28.7666" stroke="#A49EB5" stroke-width="1.5" stroke-miterlimit="10" stroke-linecap="round" stroke-linejoin="round"/>
<path d="M22.4889 13H30.0222C34.2032 13.226 36.3 14.7703 36.3 20.5208V30.5777" stroke="#252C37" stroke-width="1.5" stroke-miterlimit="10" stroke-linecap="round" stroke-linejoin="round"/>
<path d="M13.7 21.8015V30.5526C13.7 35.5874 14.9555 38.1111 21.2333 38.1111H24.9999C25.2134 38.1111 28.5657 38.1111 28.7666 38.1111" stroke="#252C37" stroke-width="1.5" stroke-miterlimit="10" stroke-linecap="round" stroke-linejoin="round"/>
<path d="M36.2999 30.5778L28.7666 38.1111V34.3445C28.7666 31.8334 30.0222 30.5778 32.5333 30.5778H36.2999Z" stroke="#252C37" stroke-width="1.5" stroke-linecap="round" stroke-linejoin="round"/>
</svg>
