<svg width="24" height="24" viewBox="0 0 24 24" fill="none" xmlns="http://www.w3.org/2000/svg">
<path d="M19.0001 8.00153C20.6601 8.00153 22.0001 9.34153 22.0001 11.0015V17.0015H18.0001V21.0015H6.00012V17.0015H2.00012V11.0015C2.00012 9.34153 3.34012 8.00153 5.00012 8.00153H6.00012V3.00153H18.0001V8.00153H19.0001ZM8.00012 5.00153V8.00153H16.0001V5.00153H8.00012ZM16.0001 19.0015V15.0015H8.00012V19.0015H16.0001ZM18.0001 15.0015H20.0001V11.0015C20.0001 10.4515 19.5501 10.0015 19.0001 10.0015H5.00012C4.45012 10.0015 4.00012 10.4515 4.00012 11.0015V15.0015H6.00012V13.0015H18.0001V15.0015ZM19.0001 11.5015C19.0001 12.0515 18.5501 12.5015 18.0001 12.5015C17.4501 12.5015 17.0001 12.0515 17.0001 11.5015C17.0001 10.9515 17.4501 10.5015 18.0001 10.5015C18.5501 10.5015 19.0001 10.9515 19.0001 11.5015Z" fill="#252C37"/>
</svg>
