<svg width="70" height="70" viewBox="0 0 70 70" fill="none" xmlns="http://www.w3.org/2000/svg">
<path d="M20.1111 20.9186C20.1111 20.9186 21.7778 31.2519 20.2222 34.6963C20.2222 34.6963 23.7777 40.0297 28.1111 39.8075L32.4444 34.6963L31.7778 18.4741L20.1111 20.9186Z" fill="#00233F"/>
<path d="M49.8889 20.9186C49.8889 20.9186 48.2222 31.2519 49.7778 34.6963C49.7778 34.6963 46.2222 40.0297 41.8889 39.8075L37.5555 34.6963L38.2222 18.4741L49.8889 20.9186Z" fill="#00233F"/>
<path d="M49.4444 13.363C49.4444 22.8074 53.2222 25.0296 37.8889 25.0296H32.2222C25.7778 25.0296 20.5555 19.6963 20.5555 13.363C20.5555 7.02962 25.7778 1.69629 32.1111 1.69629H37.7778C44.2222 1.69629 49.4444 7.02962 49.4444 13.363Z" fill="#00233F"/>
<path d="M42.7778 30.5851H27.2222V46.1406H42.7778V30.5851Z" fill="#F9BDA0"/>
<path d="M42.7778 46.1406L34.7778 47.474L27.6667 30.5851H42.7778V46.1406Z" fill="#E28F71"/>
<path d="M46.6666 17.474C46.6666 28.6962 41 38.9185 35 38.9185C29 38.9185 23.3333 28.6962 23.3333 17.474C23.3333 6.2518 29 4.36292 35 4.36292C41 4.36292 46.6666 6.2518 46.6666 17.474Z" fill="#FCCCB9"/>
<path d="M35 4.36292C41 4.36292 46.6667 6.2518 46.6667 17.474C46.6667 28.6962 41 38.9185 35 38.9185" fill="#F9BDA0"/>
<path d="M26.8889 44.9185L6.22222 52.3629L0 68.3629H34.4444L26.8889 44.9185Z" fill="#C61867"/>
<path d="M26.8889 44.9185L10 54.474L6.22223 68.3629H34.4444L26.8889 44.9185Z" fill="#750C41"/>
<path d="M27.1111 43.5851L22.2222 45.6962L22.6667 62.8073L35 68.474V49.1406L27.1111 43.5851Z" fill="#D6D6D6"/>
<path d="M27.1111 43.5851L35 49.1406L25.4445 54.1406L27.1111 43.5851Z" fill="white"/>
<path d="M43.1111 44.9185L63.7778 52.3629L70 68.3629H35.5555L43.1111 44.9185Z" fill="#C61867"/>
<path d="M43.1111 44.9185L60 54.474L63.7778 68.3629H35.5555L43.1111 44.9185Z" fill="#750C41"/>
<path d="M42.8889 43.5851L47.7778 45.6962L47.3333 62.8073L35 68.474V49.1406L42.8889 43.5851Z" fill="#D6D6D6"/>
<path d="M42.8889 43.5851L35 49.1406L44.5556 54.1406L42.8889 43.5851Z" fill="white"/>
<path d="M40.5556 2.14075C40.5556 2.14075 35.7778 21.5852 19.4445 22.6963C19.4445 22.6963 17.5556 10.8074 22.4445 5.80742C27.2223 0.69631 35.8889 1.5852 35.8889 1.5852L40.5556 2.14075Z" fill="#00233F"/>
<path d="M32.3334 2.14079C32.3334 2.14079 35.6667 19.9186 50.3334 21.6963C50.3334 21.6963 52.5556 11.1408 48.4445 6.36302C44.3334 1.58524 36.5556 1.91857 36.5556 1.91857L32.3334 2.14079Z" fill="#00233F"/>
<path d="M35 57.2518C36.5341 57.2518 37.7778 56.0082 37.7778 54.4741C37.7778 52.9399 36.5341 51.6963 35 51.6963C33.4659 51.6963 32.2222 52.9399 32.2222 54.4741C32.2222 56.0082 33.4659 57.2518 35 57.2518Z" fill="#B5750F"/>
<path d="M35 56.9185C36.5341 56.9185 37.7778 55.6748 37.7778 54.1407C37.7778 52.6066 36.5341 51.3629 35 51.3629C33.4659 51.3629 32.2222 52.6066 32.2222 54.1407C32.2222 55.6748 33.4659 56.9185 35 56.9185Z" fill="#DD981D"/>
<path d="M35 51.3629C36.5556 51.3629 37.7778 52.5851 37.7778 54.1407C37.7778 55.6962 36.5556 56.9185 35 56.9185" fill="#CE8106"/>
<path d="M35 55.9185C35.9818 55.9185 36.7778 55.1225 36.7778 54.1407C36.7778 53.1589 35.9818 52.3629 35 52.3629C34.0182 52.3629 33.2222 53.1589 33.2222 54.1407C33.2222 55.1225 34.0182 55.9185 35 55.9185Z" fill="#EFB65B"/>
<path d="M36.2222 52.8074C36.8889 53.474 36.8889 54.5852 36.2222 55.3629C35.5556 56.0296 34.4445 56.0296 33.6667 55.3629" fill="#E2A750"/>
<path d="M35 65.6963C36.5341 65.6963 37.7778 64.4526 37.7778 62.9185C37.7778 61.3844 36.5341 60.1407 35 60.1407C33.4659 60.1407 32.2222 61.3844 32.2222 62.9185C32.2222 64.4526 33.4659 65.6963 35 65.6963Z" fill="#B5750F"/>
<path d="M35 65.3629C36.5341 65.3629 37.7778 64.1193 37.7778 62.5852C37.7778 61.051 36.5341 59.8074 35 59.8074C33.4659 59.8074 32.2222 61.051 32.2222 62.5852C32.2222 64.1193 33.4659 65.3629 35 65.3629Z" fill="#DD981D"/>
<path d="M35 59.8074C36.5556 59.8074 37.7778 61.0296 37.7778 62.5852C37.7778 64.1407 36.5556 65.3629 35 65.3629" fill="#CE8106"/>
<path d="M35 64.3629C35.9818 64.3629 36.7778 63.567 36.7778 62.5852C36.7778 61.6033 35.9818 60.8074 35 60.8074C34.0182 60.8074 33.2222 61.6033 33.2222 62.5852C33.2222 63.567 34.0182 64.3629 35 64.3629Z" fill="#EFB65B"/>
<path d="M36.2222 61.3629C36.8889 62.0296 36.8889 63.1407 36.2222 63.9185C35.5556 64.5851 34.4445 64.5851 33.6667 63.9185" fill="#E2A750"/>
</svg>
