<svg width="45" height="45" viewBox="0 0 45 45" fill="none" xmlns="http://www.w3.org/2000/svg">
<circle cx="22.5" cy="22.5" r="22.5" fill="white"/>
<path d="M30.7275 28C30.1067 28 29.5523 27.8934 29.0641 27.6801C28.5789 27.4669 28.1947 27.1711 27.9115 26.7927C27.6312 26.4113 27.4806 25.9698 27.4595 25.4683H28.8788C28.8969 25.7416 28.9888 25.9788 29.1545 26.1801C29.3232 26.3783 29.5432 26.5314 29.8144 26.6395C30.0856 26.7477 30.387 26.8017 30.7184 26.8017C31.0831 26.8017 31.4055 26.7387 31.6857 26.6125C31.969 26.4864 32.1905 26.3107 32.3502 26.0855C32.5099 25.8572 32.5897 25.5944 32.5897 25.2971C32.5897 24.9878 32.5099 24.716 32.3502 24.4818C32.1935 24.2445 31.963 24.0583 31.6586 23.9232C31.3573 23.788 30.9927 23.7205 30.5648 23.7205H29.7828V22.5853H30.5648C30.9083 22.5853 31.2096 22.5237 31.4688 22.4006C31.7309 22.2774 31.9358 22.1063 32.0835 21.887C32.2312 21.6648 32.305 21.405 32.305 21.1077C32.305 20.8224 32.2402 20.5746 32.1106 20.3644C31.9841 20.1512 31.8033 19.9845 31.5682 19.8644C31.3362 19.7443 31.062 19.6842 30.7456 19.6842C30.4442 19.6842 30.1625 19.7398 29.9003 19.8509C29.6412 19.959 29.4302 20.1152 29.2675 20.3194C29.1048 20.5206 29.0174 20.7623 29.0053 21.0446H27.6538C27.6689 20.5461 27.8166 20.1076 28.0968 19.7292C28.3801 19.3508 28.7537 19.055 29.2178 18.8418C29.6818 18.6286 30.1971 18.522 30.7636 18.522C31.3573 18.522 31.8695 18.6376 32.3005 18.8688C32.7344 19.0971 33.0689 19.4019 33.3039 19.7833C33.542 20.1647 33.6595 20.5821 33.6565 21.0356C33.6595 21.5522 33.5149 21.9906 33.2226 22.351C32.9333 22.7114 32.5476 22.9532 32.0654 23.0763V23.1484C32.6801 23.2415 33.1563 23.4847 33.4938 23.8781C33.8343 24.2715 34.003 24.7596 34 25.3422C34.003 25.8497 33.8614 26.3047 33.5751 26.7071C33.2919 27.1095 32.9046 27.4264 32.4135 27.6576C31.9223 27.8859 31.3603 28 30.7275 28Z" fill="black"/>
<path d="M17.3929 27.874V26.5285L21.5695 22.216C22.0154 21.7475 22.3831 21.3371 22.6723 20.9847C22.9656 20.6283 23.1846 20.2899 23.3293 19.9696C23.4739 19.6493 23.5462 19.3089 23.5462 18.9485C23.5462 18.5401 23.4498 18.1877 23.2569 17.8914C23.0641 17.5911 22.8009 17.3609 22.4674 17.2007C22.134 17.0365 21.7583 16.9544 21.3404 16.9544C20.8985 16.9544 20.5128 17.0445 20.1833 17.2247C19.8538 17.4049 19.6007 17.6592 19.4239 17.9875C19.2471 18.3159 19.1588 18.7003 19.1588 19.1407H17.3809C17.3809 18.3919 17.5536 17.7372 17.8992 17.1767C18.2447 16.6161 18.7188 16.1816 19.3215 15.8733C19.9241 15.561 20.6092 15.4048 21.3766 15.4048C22.152 15.4048 22.8351 15.5589 23.4257 15.8673C24.0203 16.1716 24.4844 16.588 24.8179 17.1166C25.1513 17.6411 25.3181 18.2338 25.3181 18.8945C25.3181 19.351 25.2317 19.7974 25.0589 20.2339C24.8902 20.6703 24.5949 21.1569 24.173 21.6934C23.7511 22.226 23.1645 22.8727 22.4132 23.6335L19.9603 26.1922V26.2823H25.517V27.874H17.3929Z" fill="black"/>
<path d="M14.5922 18.6482V27.8739H13.1909V20.0447H13.1367L10.9219 21.4862V20.1528L13.2316 18.6482H14.5922Z" fill="black"/>
</svg>
