<svg width="110" height="114" viewBox="0 0 110 114" fill="none" xmlns="http://www.w3.org/2000/svg">
<path d="M55 114C85.3757 114 110 89.3757 110 59C110 28.6243 85.3757 4 55 4C24.6243 4 0 28.6243 0 59C0 89.3757 24.6243 114 55 114Z" fill="#E91E63"/>
<path d="M73.7865 29C61.5382 30.766 54.5714 31.4325 41.9493 32.0696C36.4957 43.5049 33.2227 49.8632 27 61.1004C30.8918 59.0523 32.9852 58.3494 36.561 57.9002L39.1894 61.9495C39.1894 61.9495 39.8137 55.6796 42.8036 50.0955C45.7934 44.5114 51.2146 42.0296 51.2146 42.0296C57.3798 39.7768 60.0126 39.2265 66.1639 40.1356C70.8199 41.4744 70.3772 44.5265 65.3097 48.4954C68.7765 46.567 70.9609 44.8053 70.9609 42.6174C70.9609 40.4295 69.4876 38.6849 66.9853 36.87L73.7865 29Z" fill="white"/>
<path d="M41.4807 55.9082C43.745 49.2205 45.8555 46.4556 51.1403 43.2612V74.0228L46.3191 68.252C46.3191 68.252 44.3806 70.3746 41.4807 74.0228V55.9082Z" fill="white"/>
<path d="M64.2255 51.3037V58.4879H52.0032V51.3037H64.2255Z" fill="white"/>
<path d="M42.015 82H69.0881C74.4107 81.4122 79.8647 77.6568 82.1646 71.8115C83.9618 65.2168 82.9532 60.3493 78.222 55.8102C74.1479 52.2834 71.5523 51.3037 65.2111 51.3037V58.5859C68.3668 58.8592 69.6138 58.8472 71.848 60.3493C74.0493 62.3087 75.1815 64.8558 74.7721 67.5009C74.1807 71.3216 72.1837 73.3259 67.8724 74.7505H50.4098L46.2534 69.6562L42.015 74.7505V82Z" fill="white"/>
<path d="M30.4498 60.749L30.9466 60.5779L35.6568 74.0932L35.1601 74.2643L30.4498 60.749Z" fill="white"/>
<path d="M36.4787 68.5323C36.4787 70.2817 35.0519 71.6999 33.2917 71.6999C31.5316 71.6999 30.1047 70.2817 30.1047 68.5323C30.1047 66.7829 31.5316 65.3647 33.2917 65.3647C35.0519 65.3647 36.4787 66.7829 36.4787 68.5323Z" fill="white"/>
<path d="M30.4498 60.749L30.9466 60.5779L35.6568 74.0932L35.1601 74.2643L30.4498 60.749Z" fill="white"/>
</svg>
