<svg width="24" height="24" viewBox="0 0 24 24" fill="none" xmlns="http://www.w3.org/2000/svg">
<path d="M17.0001 7.00067V5.00066H19.0001V15.8007L21.0001 17.8007V5.00066C21.0001 3.90066 20.1101 3.00066 19.0001 3.00066H14.8201C14.2501 1.44067 12.5301 0.640665 11.0001 1.20066C10.1401 1.50067 9.50011 2.16067 9.18011 3.00066H6.20011L10.2001 7.00067H17.0001ZM12.0001 3.00066C12.5501 3.00066 13.0001 3.45066 13.0001 4.00066C13.0001 4.55066 12.5501 5.00066 12.0001 5.00066C11.4501 5.00066 11.0001 4.55066 11.0001 4.00066C11.0001 3.45066 11.4501 3.00066 12.0001 3.00066ZM14.2001 11.0007L12.2001 9.00067H17.0001V11.0007H14.2001ZM2.39011 1.73066L1.11011 3.00066L3.00011 4.90067C3.00011 4.93067 3.00011 4.97066 3.00011 5.00066V19.0007C3.00011 20.1107 3.90011 21.0007 5.00011 21.0007H19.0001C19.0301 21.0007 19.0701 21.0007 19.1001 21.0007L20.8401 22.7307L22.1101 21.4607L2.39011 1.73066ZM5.00011 19.0007V6.89067L7.11011 9.00067H7.00011V11.0007H9.11011L11.1101 13.0007H7.00011V15.0007H13.1101L17.1101 19.0007H5.00011Z" fill="#252C37"/>
</svg>
