<svg width="70" height="70" viewBox="0 0 70 70" fill="none" xmlns="http://www.w3.org/2000/svg">
<g clip-path="url(#clip0_2_1365)">
<path d="M58.7073 51.25C58.3462 51.25 57.9883 51.0945 57.7411 50.794C57.3025 50.261 57.3793 49.473 57.9125 49.0346C64.0055 44.0233 67.5001 36.63 67.5001 28.7499C67.5001 14.2755 55.7245 2.4999 41.2501 2.4999C32.7195 2.4999 24.6904 6.66996 19.7718 13.6546C19.3744 14.2192 18.5945 14.3545 18.0302 13.9569C17.4658 13.5595 17.3303 12.7796 17.7279 12.2153C23.1139 4.56654 31.9071 0 41.2499 0C57.1027 0 70 12.8972 70 28.75C70 37.3804 66.1731 45.4777 59.5006 50.9655C59.2679 51.1567 58.9867 51.25 58.7073 51.25Z" fill="#E4EAF6"/>
<path d="M59.3122 57.1157L43.6955 48.1242C42.1803 47.2518 40.2681 47.5047 39.0318 48.741L35.9559 51.8169C34.7703 53.0026 32.8824 53.1101 31.5762 52.0591C29.1645 50.1185 26.754 47.959 24.3975 45.6025C22.0411 43.246 19.8816 40.8355 17.941 38.4238C16.8899 37.1176 16.9975 35.2298 18.1831 34.0442L21.259 30.9683C22.4952 29.7321 22.7483 27.8198 21.8759 26.3047L12.8843 10.6878C11.6148 8.48269 8.59819 8.08375 6.79897 9.88296L2.16393 14.518C-3.87657 20.5585 3.16253 37.3908 17.8859 52.1142C32.6093 66.8375 49.4417 73.8766 55.4821 67.8361L60.1171 63.2011C61.9163 61.4019 61.5175 58.3853 59.3122 57.1157Z" fill="#FF6464"/>
<path d="M5.49487 11.1871L18.4825 33.7447L21.2588 30.9684C22.495 29.7321 22.7481 27.8199 21.8756 26.3047L12.8842 10.6879C11.6145 8.48291 8.59812 8.08383 6.79876 9.88304L5.49487 11.1871Z" fill="#D2555A"/>
<path d="M58.813 64.5052L60.117 63.2012C61.9162 61.4019 61.5171 58.3854 59.3121 57.1158L43.6954 48.1242C42.1802 47.2518 40.268 47.5048 39.0317 48.7411L36.1829 51.5896L58.813 64.5052Z" fill="#D2555A"/>
<path d="M55.0001 31.25H53.7501V18.75C53.7501 18.0597 53.1904 17.5 52.5001 17.5C51.8098 17.5 51.2501 18.0597 51.2501 18.75V31.25H45.2478L47.4799 18.9737C47.6034 18.2944 47.1529 17.6437 46.4737 17.5202C45.7943 17.3965 45.1435 17.8472 45.0202 18.5264L42.5202 32.2764C42.4539 32.641 42.5528 33.0164 42.7903 33.301C43.0278 33.5855 43.3794 33.7501 43.75 33.7501H51.2499V36.2501C51.2499 36.9404 51.8097 37.5001 52.5 37.5001C53.1902 37.5001 53.75 36.9404 53.75 36.2501V33.7501H55C55.6903 33.7501 56.25 33.1904 56.25 32.5001C56.2502 31.8096 55.6904 31.25 55.0001 31.25Z" fill="#FF6464"/>
<path d="M40.0001 37.5H30C29.3098 37.5 28.75 36.9403 28.75 36.25C28.75 32.4256 31.6527 30.7197 34.2137 29.2146C36.6477 27.7841 38.7499 26.5487 38.7499 23.7501C38.7499 21.6825 37.0676 20 34.9999 20C32.9323 20 31.2498 21.6824 31.2498 23.7501C31.2498 24.4404 30.6901 25.0001 29.9998 25.0001C29.3095 25.0001 28.7498 24.4404 28.7498 23.7501C28.75 20.3038 31.5537 17.5 35 17.5C38.4463 17.5 41.2499 20.3037 41.2499 23.75C41.2499 27.9791 38.0509 29.8592 35.4804 31.3698C33.3894 32.5988 31.9436 33.5219 31.4434 35H39.9999C40.6902 35 41.2499 35.5597 41.2499 36.25C41.2499 36.9403 40.6904 37.5 40.0001 37.5Z" fill="#FF6464"/>
<path d="M57.5 52.4999C57.1718 52.4999 56.8528 52.3706 56.6161 52.1338C56.3207 51.8384 56.1924 51.4145 56.2742 51.0048L57.5242 44.7548C57.6597 44.0779 58.3176 43.6392 58.9952 43.7741C59.6721 43.9096 60.1111 44.5681 59.9756 45.2451L59.0933 49.6565L63.5046 48.7742C64.1815 48.6386 64.8402 49.0779 64.9755 49.7549C65.1109 50.4319 64.6719 51.0904 63.9951 51.2259L57.7452 52.4759C57.6635 52.492 57.5815 52.4999 57.5 52.4999Z" fill="#E4EAF6"/>
<path d="M41.25 10.0001C40.5597 10.0001 40 9.44035 40 8.75006V6.25002C40 5.55973 40.5597 5 41.25 5C41.9403 5 42.5 5.55973 42.5 6.25002V8.75006C42.5 9.44035 41.9404 10.0001 41.25 10.0001Z" fill="#AFB9D2"/>
<path d="M63.7501 30.0002H61.25C60.5597 30.0002 60 29.4404 60 28.7501C60 28.0598 60.5597 27.5001 61.25 27.5001H63.7501C64.4404 27.5001 65.0001 28.0598 65.0001 28.7501C65.0001 29.4404 64.4404 30.0002 63.7501 30.0002Z" fill="#AFB9D2"/>
<path d="M51.8737 11.5971C51.6617 11.5971 51.4469 11.5431 51.25 11.4295C50.6521 11.0843 50.4472 10.3198 50.7925 9.72202L51.4175 8.63948C51.7627 8.04148 52.5272 7.83654 53.125 8.18202C53.7228 8.52724 53.9278 9.29177 53.5824 9.8895L52.9575 10.972C52.7259 11.3729 52.3056 11.5971 51.8737 11.5971Z" fill="#E4EAF6"/>
<path d="M30.6262 11.5971C30.194 11.5971 29.774 11.3729 29.5424 10.9719L28.9175 9.88939C28.5721 9.29151 28.7772 8.52698 29.375 8.18191C29.9732 7.83669 30.7374 8.04191 31.0824 8.63937L31.7074 9.72191C32.0527 10.3198 31.8477 11.0843 31.2499 11.4294C31.0532 11.5431 30.8381 11.5971 30.6262 11.5971Z" fill="#E4EAF6"/>
<path d="M22.8458 19.3752C22.6338 19.3752 22.419 19.3212 22.2221 19.2076L21.1394 18.5827C20.5416 18.2375 20.3366 17.4729 20.6818 16.8752C21.0272 16.2772 21.7916 16.0723 22.3895 16.4177L23.4721 17.0427C24.07 17.3879 24.2749 18.1524 23.9297 18.7502C23.698 19.151 23.2779 19.3752 22.8458 19.3752Z" fill="#E4EAF6"/>
<path d="M60.7343 41.2502C60.5223 41.2502 60.3075 41.1962 60.1106 41.0826L59.0281 40.4576C58.4302 40.1124 58.2253 39.3479 58.5706 38.7501C58.9155 38.1521 59.6801 37.9473 60.2781 38.2927L61.3606 38.9176C61.9585 39.2628 62.1634 40.0274 61.8181 40.6251C61.5865 41.026 61.1663 41.2502 60.7343 41.2502Z" fill="#E4EAF6"/>
<path d="M59.6541 19.3751C59.2219 19.3751 58.8019 19.1509 58.5703 18.7499C58.225 18.1521 58.4301 17.3875 59.0278 17.0424L60.1103 16.4175C60.7085 16.0721 61.4729 16.2772 61.8178 16.875C62.1632 17.4728 61.9581 18.2374 61.3604 18.5824L60.2778 19.2074C60.0812 19.321 59.8662 19.3751 59.6541 19.3751Z" fill="#E4EAF6"/>
</g>
<defs>
<clipPath id="clip0_2_1365">
<rect width="70" height="70" fill="white"/>
</clipPath>
</defs>
</svg>
