<svg width="24" height="24" viewBox="0 0 24 24" fill="none" xmlns="http://www.w3.org/2000/svg">
<path d="M19.7495 7.78308C20.8347 7.95056 21.7917 8.47425 22.5044 9.20886C23.4231 10.1559 23.7495 11.2305 23.7495 11.9999C23.7495 12.7693 23.4232 13.8438 22.5044 14.7909C21.7917 15.5254 20.8347 16.0482 19.7495 16.2157V7.78308Z" stroke="#252C37" stroke-width="0.5"/>
<path d="M16.2156 19.7496C16.048 20.8348 15.5252 21.7918 14.7908 22.5045C13.8437 23.4232 12.7692 23.7496 11.9998 23.7496C11.2304 23.7496 10.1558 23.4233 9.20874 22.5045C8.47417 21.7918 7.95136 20.8348 7.78394 19.7496H16.2156Z" stroke="#252C37" stroke-width="0.5"/>
<path d="M4.25 16.2157C3.16484 16.0483 2.20782 15.5254 1.49512 14.7909C0.576352 13.8438 0.250003 12.7693 0.25 11.9999C0.25 11.2305 0.576365 10.1559 1.49512 9.20886C2.20787 8.47422 3.16475 7.95054 4.25 7.78308V16.2157Z" stroke="#252C37" stroke-width="0.5"/>
<path d="M11.9998 0.25C12.7692 0.250049 13.8437 0.576423 14.7908 1.49512C15.5253 2.20784 16.0481 3.16484 16.2156 4.25H7.78394C7.95134 3.16482 8.47414 2.20783 9.20874 1.49512C10.1558 0.576359 11.2304 0.25 11.9998 0.25Z" stroke="#252C37" stroke-width="0.5"/>
<rect x="5.5" y="6.24915" width="12.9997" height="11.4998" stroke="#252C37" stroke-width="0.5"/>
</svg>
