<svg width="24" height="24" viewBox="0 0 24 24" fill="none" xmlns="http://www.w3.org/2000/svg">
<path d="M20 12.0005C20 12.5571 19.7652 13.3147 19.1227 13.977C18.5818 14.5344 17.8401 14.9192 17 15.0005V13.6416V12.0005C17 11.1383 17.0001 10.8128 17.0001 10.5334C17.0002 10.2115 17.0002 9.9506 17.0001 9.00049C17.8401 9.08179 18.5818 9.4665 19.1227 10.024C19.7652 10.6863 20 11.444 20 12.0005Z" fill="#252C37"/>
<path d="M11.9999 20.0005C11.4434 20.0005 10.6858 19.7656 10.0235 19.1232C9.46601 18.5823 9.08121 17.8406 9 17.0005H10.3589H11.9999C12.8621 17.0005 13.1877 17.0005 13.4671 17.0006C13.789 17.0007 14.0499 17.0007 15 17.0006C14.9187 17.8406 14.534 18.5823 13.9765 19.1232C13.3142 19.7656 12.5565 20.0005 11.9999 20.0005Z" fill="#252C37"/>
<path d="M4 12.0005C4 12.5571 4.23487 13.3147 4.87735 13.977C5.41822 14.5344 6.15992 14.9192 6.99996 15.0005V13.6416L7 12.0005C7 11.1383 6.99996 10.8128 6.99991 10.5334C6.99982 10.2115 6.99978 9.9506 6.99987 9.00049C6.15988 9.08179 5.41822 9.4665 4.87735 10.024C4.23487 10.6863 4 11.444 4 12.0005Z" fill="#252C37"/>
<path d="M11.9999 4.00049C11.4434 4.00049 10.6858 4.23536 10.0235 4.87784C9.46601 5.41871 9.08121 6.16041 9 7.00044H10.3589L11.9999 7.00049C12.8621 7.00049 13.1877 7.00044 13.4671 7.0004C13.789 7.00031 14.0499 7.00027 15 7.00036C14.9187 6.16036 14.534 5.41871 13.9765 4.87784C13.3142 4.23536 12.5565 4.00049 11.9999 4.00049Z" fill="#252C37"/>
<rect x="8" y="8.5" width="8" height="7" stroke="#252C37"/>
</svg>
