<svg width="100" height="100" viewBox="0 0 100 100" fill="none" xmlns="http://www.w3.org/2000/svg">
<g clip-path="url(#clip0_2_733)">
<path d="M50 100C77.6142 100 100 77.6142 100 50C100 22.3858 77.6142 0 50 0C22.3858 0 0 22.3858 0 50C0 77.6142 22.3858 100 50 100Z" fill="#E6F3FF"/>
<path d="M100 50C100 48.002 99.8791 46.0324 99.6512 44.0957L83.3334 27.778L65.0496 42.5137L16.6666 72.2223L44.0957 99.6512C46.0322 99.8791 48.0019 100 50 100C77.6141 100 100 77.6141 100 50Z" fill="#CFDBE6"/>
<path d="M83.3332 27.7777H16.6666V72.2222H83.3332V27.7777Z" fill="#3C5566"/>
<path d="M83.3334 27.7777H49.8889V72.2222H83.3334V27.7777Z" fill="#324A5E"/>
<path d="M83.3332 63.7205H16.6666V69.2759H83.3332V63.7205Z" fill="#324A5E"/>
<path d="M83.3334 63.7205H49.8889V69.276H83.3334V63.7205Z" fill="#2B3B4E"/>
<path d="M26.1783 63.7205H23.8215V69.276H26.1783V63.7205Z" fill="#FFD15D"/>
<path d="M50 58.7543C56.1365 58.7543 61.1111 53.7797 61.1111 47.6432C61.1111 41.5067 56.1365 36.532 50 36.532C43.8635 36.532 38.8889 41.5067 38.8889 47.6432C38.8889 53.7797 43.8635 58.7543 50 58.7543Z" fill="#FC6F58"/>
<path d="M50 36.532C49.9623 36.532 49.9252 36.5344 49.8879 36.5348V58.7512C49.9252 58.7516 49.9623 58.7539 50 58.7539C56.1363 58.7539 61.1111 53.7791 61.1111 47.6428C61.1111 41.5065 56.1363 36.532 50 36.532Z" fill="#F1543F"/>
<path d="M45.8559 41.4609L56.8377 47.8014L45.8559 54.1418V41.4609Z" fill="#E6F3FF"/>
<path d="M56.7232 47.8678H45.8559V54.1418L56.7232 47.8678Z" fill="#CFDBE6"/>
</g>
<defs>
<clipPath id="clip0_2_733">
<rect width="100" height="100" fill="white"/>
</clipPath>
</defs>
</svg>
